<?xml version="1.0" encoding="UTF-8"?>
<svg width="54px" height="64px" viewBox="0 0 54 64" version="1.1" xmlns="http://www.w3.org/2000/svg">
  <!-- Generator: Sketch 52.2 (67145) - http://www.bohemiancoding.com/sketch -->
  <title>Icon</title>
  <desc>Created with Sketch.</desc>
  <g id="Interface-Inventory" stroke="none" stroke-width="1" fill="none" fill-rule="evenodd">
    <g id="7.1-Icons" transform="translate(-135.000000, -1219.000000)">
      <g id="Icon" transform="translate(135.000000, 1219.000000)">
        <path
          d="M9.65132289,54.0037482 C3.75412138,49.0976269 0,41.7036424 0,33.4328358 C0,18.6612795 11.9747124,6.68656716 26.7462687,6.68656716 C41.5178249,6.68656716 53.4925373,18.6612795 53.4925373,33.4328358 C53.4925373,41.6582496 49.7795104,49.0164395 43.9381175,53.9227447 L48.7164179,61.3731916 L44.7180501,63.965171 L40.0285604,56.6532419 C36.1151363,58.8965872 31.5804765,60.1791045 26.7462687,60.1791045 C21.9562814,60.1791045 17.4603871,58.9199434 13.5715291,56.7145649 L8.73258364,64 L4.7761194,61.3438213 L9.65134091,54.0037632 L9.65132289,54.0037482 Z M20.6339167,4.45245405 C14.2819213,5.78546271 8.67881749,9.15410777 4.5384897,13.8445047 L1.91044776,9.40943728 C6.2331554,4.92948639 11.7704267,1.61834291 17.9955722,0 L20.6339167,4.45245405 Z M32.8133967,4.44300055 L35.5240184,0.025917109 C41.7434278,1.6626349 47.2718154,4.99023174 51.5820896,9.48431434 L48.9259126,13.8126775 C44.778514,9.12775563 39.1696359,5.76649046 32.8133967,4.44300055 Z M26.7462687,55.4029851 C38.880047,55.4029851 48.7164179,45.5666142 48.7164179,33.4328358 C48.7164179,21.2990574 38.880047,11.4626866 26.7462687,11.4626866 C14.6124903,11.4626866 4.7761194,21.2990574 4.7761194,33.4328358 C4.7761194,45.5666142 14.6124903,55.4029851 26.7462687,55.4029851 Z"
          id="Combined-Shape" fill="#071C2C"></path>
        <path
          d="M19.1044776,24.8358209 L23.880597,24.8358209 L23.880597,42.0298507 L19.1044776,42.0298507 L19.1044776,24.8358209 Z M29.6119403,24.8358209 L34.3880597,24.8358209 L34.3880597,42.0298507 L29.6119403,42.0298507 L29.6119403,24.8358209 Z"
          id="Combined-Shape" fill="#004A97"></path>
      </g>
    </g>
  </g>
</svg>
