<?xml version="1.0" encoding="UTF-8"?>
<svg width="580px" height="3806px" viewBox="0 0 580 3806" version="1.1" xmlns="http://www.w3.org/2000/svg">
  <!-- Generator: Sketch 52.2 (67145) - http://www.bohemiancoding.com/sketch -->
  <title>Group</title>
  <desc>Created with Sketch.</desc>
  <defs>
    <linearGradient x1="0%" y1="60.2883629%" x2="100%" y2="60.2883629%" id="linearGradient-1">
      <stop stop-color="#FFFFFF" offset="0%"></stop>
      <stop stop-color="#EAEFF5" offset="15.5393218%"></stop>
      <stop stop-color="#EAEFF5" offset="84.4606782%"></stop>
      <stop stop-color="#FFFFFF" offset="100%"></stop>
    </linearGradient>
    <linearGradient x1="0%" y1="60.2883629%" x2="100%" y2="60.2883629%" id="linearGradient-2">
      <stop stop-color="#FFFFFF" offset="0%"></stop>
      <stop stop-color="#EAEFF5" offset="15.5393218%"></stop>
      <stop stop-color="#E1E8F0" offset="23.791083%"></stop>
      <stop stop-color="#EAEFF5" offset="84.4606782%"></stop>
      <stop stop-color="#FFFFFF" offset="100%"></stop>
    </linearGradient>
  </defs>
  <g id="Page-1" stroke="none" stroke-width="1" fill="none" fill-rule="evenodd">
    <g id="Group">
      <g id="Group-102">
        <polygon id="Combined-Shape" fill="url(#linearGradient-1)"
                 points="580 3331.51075 580 3653.0974 290 3558 0 3653.0974 5.68434189e-14 3331.51075 290 3120"></polygon>
        <polygon id="Combined-Shape" fill="url(#linearGradient-2)"
                 points="580 1391.92857 580 2172.24675 290 2144 0 2172.24675 5.68434189e-14 1391.92857 290 1278"></polygon>
        <path
          d="M488,635.809049 L487.955846,635.809049 L487.949519,633.815396 C487.58671,519.496166 484.848926,451.762463 477.008505,389.73503 C468.27832,320.668457 452.811661,260.047325 426.234147,191.550762 C393.213751,106.449363 363.110204,53.2475172 335.775644,25.257847 C325.44716,14.6818264 315.979476,8.20060669 307.122177,4.85722656 C300.974536,2.5366659 296.719953,2.00267333 290.000763,2.00000046 C289.999994,2.00000016 289.999984,2.00000015 290.000764,1.99999985 C290.000016,2.00000015 290.000011,2.00000015 289.999237,2.00000046 C283.280047,2.00267333 279.025464,2.5366659 272.877823,4.85722656 C264.020524,8.20060669 254.55284,14.6818264 244.224356,25.257847 C216.889796,53.2475172 186.786249,106.449363 153.765853,191.550762 C127.188339,260.047325 111.72168,320.668457 102.991495,389.73503 C95.1510741,451.762463 92.4132898,519.496166 92.0504814,633.815396 L92.0441543,635.809049 L92,635.809049 L92,3078.17291 C92,3170.06452 101.635401,3262.38388 119.525925,3353.2569 C134.984099,3431.77506 156.268207,3507.40367 181.441106,3576.83575 C208.995551,3652.83662 234.660511,3712.33012 256.77906,3754.14804 C265.622036,3770.86681 273.510943,3783.97419 279.908081,3792.87747 C285.035453,3800.01354 289.026048,3803.99916 289.998274,3804 C290.973952,3803.99916 294.964547,3800.01354 300.091919,3792.87747 C306.489057,3783.97419 314.377964,3770.86681 323.22094,3754.14804 C345.339489,3712.33012 371.004449,3652.83662 398.558894,3576.83575 C423.731793,3507.40367 445.015901,3431.77506 460.474075,3353.2569 C478.364599,3262.38388 488,3170.06452 488,3078.17291 L488,635.809049 Z M290.000764,1.99999985 C290.000774,1.99999985 290.000785,1.99999985 290.000796,1.99999984 C290.00079,1.99999984 290.000785,1.99999985 290.000779,1.99999985 Z"
          id="Combined-Shape" stroke="#EAEFF5" stroke-width="4" fill="#FFFFFF"></path>
      </g>
      <g id="Group-3" transform="translate(122.000000, 418.000000)">
        <g id="Group-5">
          <path
            d="M6.75,-7.10541278e-15 L328.992195,-8.43769499e-15 C330.048322,-3.86486246e-14 330.922421,0.821173587 330.9883,1.87524343 L335.7383,77.8752434 C335.807201,78.9776619 334.96937,79.927204 333.866952,79.9961052 C333.825417,79.9987011 333.783811,80 333.742195,80 L2,80 C0.8954305,80 1.3527075e-16,79.1045695 0,78 C-5.09648007e-18,77.9583841 0.00129891339,77.9167783 0.00389484303,77.8752434 L4.75389484,1.87524343 C4.81977421,0.821173587 5.69387344,-6.68937545e-15 6.75,-6.88338275e-15 Z"
            id="Rectangle-74" fill="#EAEFF5"></path>
          <path
            d="M245,28 C242.800781,28 241,29.800781 241,32 C241,33.113281 241.476563,34.117188 242.21875,34.84375 C240.886719,35.746094 240,37.285156 240,39 L240,44.625 L242,45.625 L242,52 L248,52 L248,45.625 L250,44.625 L250,39 C250,37.285156 249.113281,35.746094 247.78125,34.84375 C248.523438,34.117188 249,33.113281 249,32 C249,29.800781 247.199219,28 245,28 Z M258,28 C255.800781,28 254,29.800781 254,32 C254,33.152344 254.523438,34.175781 255.3125,34.90625 C254.40625,35.585938 253.746094,36.597656 253.53125,37.8125 C253.53125,37.824219 253.53125,37.832031 253.53125,37.84375 L252.03125,45.8125 L251.78125,47 L255,47 L255,52 L261,52 L261,47 L264.21875,47 L263.96875,45.8125 L262.46875,37.84375 C262.46875,37.832031 262.46875,37.824219 262.46875,37.8125 C262.253906,36.597656 261.59375,35.585938 260.6875,34.90625 C261.476563,34.175781 262,33.152344 262,32 C262,29.800781 260.199219,28 258,28 Z M245,30 C246.117188,30 247,30.882813 247,32 C247,33.117188 246.117188,34 245,34 C243.882813,34 243,33.117188 243,32 C243,30.882813 243.882813,30 245,30 Z M258,30 C259.117188,30 260,30.882813 260,32 C260,33.117188 259.117188,34 258,34 C256.882813,34 256,33.117188 256,32 C256,30.882813 256.882813,30 258,30 Z M245,36 C246.65625,36 248,37.34375 248,39 L248,43.375 L246,44.375 L246,50 L244,50 L244,44.375 L242,43.375 L242,39 C242,37.34375 243.34375,36 245,36 Z M258,36 C259.230469,36 260.277344,36.816406 260.5,38.15625 L260.5,38.1875 L260.53125,38.1875 L261.8125,45 L259,45 L259,50 L257,50 L257,45 L254.1875,45 L255.46875,38.1875 L255.5,38.1875 L255.5,38.15625 C255.722656,36.816406 256.769531,36 258,36 Z"
            id="Shape" fill="#2A93CD" fill-rule="nonzero"></path>
          <path
            d="M79,26 L79,30 L81,30 L81,26 L79,26 Z M83,27 L83,30 L85,30 L85,27 L83,27 Z M73,31 L73,32 C73,39.054688 74.792969,46.621094 75.625,49.78125 C75.972656,51.09375 77.175781,52 78.53125,52 L86.46875,52 C87.820313,52 89.03125,51.09375 89.375,49.78125 C89.667969,48.671875 90.058594,46.984375 90.46875,45 L93,45 C94.644531,45 96,43.644531 96,42 L96,39 C96,37.355469 94.644531,36 93,36 L91.8125,36 C91.921875,34.667969 92,33.332031 92,32 L92,31 L73,31 Z M75.09375,33 L81,33 L81,36 L78,36 L78,43 L86,43 L86,36 L83,36 L83,33 L89.90625,33 C89.746094,39.453125 88.207031,46.332031 87.4375,49.25 C87.320313,49.691406 86.933594,50 86.46875,50 L78.53125,50 C78.070313,50 77.679688,49.695313 77.5625,49.25 C76.792969,46.324219 75.253906,39.433594 75.09375,33 Z M80,38 L84,38 L84,41 L80,41 L80,38 Z M91.625,38 L93,38 C93.566406,38 94,38.433594 94,39 L94,42 C94,42.566406 93.566406,43 93,43 L90.875,43 C91.160156,41.441406 91.425781,39.75 91.625,38 Z"
            id="Shape" fill="#2A93CD" fill-rule="nonzero"></path>
          <rect id="Rectangle-75" fill="#FFFFFF" x="167" y="0" width="2" height="80"></rect>
        </g>
      </g>
      <rect id="Rectangle-74" fill="#EAEFF5" x="120" y="2996" width="146" height="80" rx="2"></rect>
      <path
        d="M186,3024 C183.800781,3024 182,3025.80078 182,3028 C182,3029.11328 182.476563,3030.11719 183.21875,3030.84375 C181.886719,3031.74609 181,3033.28516 181,3035 L181,3040.625 L183,3041.625 L183,3048 L189,3048 L189,3041.625 L191,3040.625 L191,3035 C191,3033.28516 190.113281,3031.74609 188.78125,3030.84375 C189.523438,3030.11719 190,3029.11328 190,3028 C190,3025.80078 188.199219,3024 186,3024 Z M199,3024 C196.800781,3024 195,3025.80078 195,3028 C195,3029.15234 195.523438,3030.17578 196.3125,3030.90625 C195.40625,3031.58594 194.746094,3032.59766 194.53125,3033.8125 C194.53125,3033.82422 194.53125,3033.83203 194.53125,3033.84375 L193.03125,3041.8125 L192.78125,3043 L196,3043 L196,3048 L202,3048 L202,3043 L205.21875,3043 L204.96875,3041.8125 L203.46875,3033.84375 C203.46875,3033.83203 203.46875,3033.82422 203.46875,3033.8125 C203.253906,3032.59766 202.59375,3031.58594 201.6875,3030.90625 C202.476563,3030.17578 203,3029.15234 203,3028 C203,3025.80078 201.199219,3024 199,3024 Z M186,3026 C187.117188,3026 188,3026.88281 188,3028 C188,3029.11719 187.117188,3030 186,3030 C184.882813,3030 184,3029.11719 184,3028 C184,3026.88281 184.882813,3026 186,3026 Z M199,3026 C200.117188,3026 201,3026.88281 201,3028 C201,3029.11719 200.117188,3030 199,3030 C197.882813,3030 197,3029.11719 197,3028 C197,3026.88281 197.882813,3026 199,3026 Z M186,3032 C187.65625,3032 189,3033.34375 189,3035 L189,3039.375 L187,3040.375 L187,3046 L185,3046 L185,3040.375 L183,3039.375 L183,3035 C183,3033.34375 184.34375,3032 186,3032 Z M199,3032 C200.230469,3032 201.277344,3032.81641 201.5,3034.15625 L201.5,3034.1875 L201.53125,3034.1875 L202.8125,3041 L200,3041 L200,3046 L198,3046 L198,3041 L195.1875,3041 L196.46875,3034.1875 L196.5,3034.1875 L196.5,3034.15625 C196.722656,3032.81641 197.769531,3032 199,3032 Z"
        id="Shape" fill="#2A93CD" fill-rule="nonzero"></path>
      <path
        d="M125.00012,3168 L454.634837,3168 C455.739407,3168 456.634837,3168.89543 456.634837,3170 C456.634837,3170.05819 456.632297,3170.11636 456.627225,3170.17433 L449.977225,3246.17433 C449.886832,3247.20739 449.021839,3248 447.984837,3248 L131.65012,3248 C130.613119,3248 129.748125,3247.20739 129.657733,3246.17433 L123.007733,3170.17433 C122.911451,3169.07397 123.725421,3168.10389 124.825787,3168.00761 C124.883759,3168.00254 124.941926,3168 125.00012,3168 Z"
        id="Rectangle-74" fill="#EAEFF5"></path>
      <path
        d="M284,3194 L284,3198 L286,3198 L286,3194 L284,3194 Z M288,3195 L288,3198 L290,3198 L290,3195 L288,3195 Z M278,3199 L278,3200 C278,3207.05469 279.792969,3214.62109 280.625,3217.78125 C280.972656,3219.09375 282.175781,3220 283.53125,3220 L291.46875,3220 C292.820313,3220 294.03125,3219.09375 294.375,3217.78125 C294.667969,3216.67188 295.058594,3214.98438 295.46875,3213 L298,3213 C299.644531,3213 301,3211.64453 301,3210 L301,3207 C301,3205.35547 299.644531,3204 298,3204 L296.8125,3204 C296.921875,3202.66797 297,3201.33203 297,3200 L297,3199 L278,3199 Z M280.09375,3201 L286,3201 L286,3204 L283,3204 L283,3211 L291,3211 L291,3204 L288,3204 L288,3201 L294.90625,3201 C294.746094,3207.45312 293.207031,3214.33203 292.4375,3217.25 C292.320313,3217.69141 291.933594,3218 291.46875,3218 L283.53125,3218 C283.070313,3218 282.679688,3217.69531 282.5625,3217.25 C281.792969,3214.32422 280.253906,3207.43359 280.09375,3201 Z M285,3206 L289,3206 L289,3209 L285,3209 L285,3206 Z M296.625,3206 L298,3206 C298.566406,3206 299,3206.43359 299,3207 L299,3210 C299,3210.56641 298.566406,3211 298,3211 L295.875,3211 C296.160156,3209.44141 296.425781,3207.75 296.625,3206 Z"
        id="Shape" fill="#2A93CD" fill-rule="nonzero"></path>
      <rect id="Rectangle-74" fill="#EAEFF5" x="314" y="2996" width="146" height="80" rx="2"></rect>
      <path
        d="M380,3024 C377.800781,3024 376,3025.80078 376,3028 C376,3029.11328 376.476563,3030.11719 377.21875,3030.84375 C375.886719,3031.74609 375,3033.28516 375,3035 L375,3040.625 L377,3041.625 L377,3048 L383,3048 L383,3041.625 L385,3040.625 L385,3035 C385,3033.28516 384.113281,3031.74609 382.78125,3030.84375 C383.523438,3030.11719 384,3029.11328 384,3028 C384,3025.80078 382.199219,3024 380,3024 Z M393,3024 C390.800781,3024 389,3025.80078 389,3028 C389,3029.15234 389.523438,3030.17578 390.3125,3030.90625 C389.40625,3031.58594 388.746094,3032.59766 388.53125,3033.8125 C388.53125,3033.82422 388.53125,3033.83203 388.53125,3033.84375 L387.03125,3041.8125 L386.78125,3043 L390,3043 L390,3048 L396,3048 L396,3043 L399.21875,3043 L398.96875,3041.8125 L397.46875,3033.84375 C397.46875,3033.83203 397.46875,3033.82422 397.46875,3033.8125 C397.253906,3032.59766 396.59375,3031.58594 395.6875,3030.90625 C396.476563,3030.17578 397,3029.15234 397,3028 C397,3025.80078 395.199219,3024 393,3024 Z M380,3026 C381.117188,3026 382,3026.88281 382,3028 C382,3029.11719 381.117188,3030 380,3030 C378.882813,3030 378,3029.11719 378,3028 C378,3026.88281 378.882813,3026 380,3026 Z M393,3026 C394.117188,3026 395,3026.88281 395,3028 C395,3029.11719 394.117188,3030 393,3030 C391.882813,3030 391,3029.11719 391,3028 C391,3026.88281 391.882813,3026 393,3026 Z M380,3032 C381.65625,3032 383,3033.34375 383,3035 L383,3039.375 L381,3040.375 L381,3046 L379,3046 L379,3040.375 L377,3039.375 L377,3035 C377,3033.34375 378.34375,3032 380,3032 Z M393,3032 C394.230469,3032 395.277344,3032.81641 395.5,3034.15625 L395.5,3034.1875 L395.53125,3034.1875 L396.8125,3041 L394,3041 L394,3046 L392,3046 L392,3041 L389.1875,3041 L390.46875,3034.1875 L390.5,3034.1875 L390.5,3034.15625 C390.722656,3032.81641 391.769531,3032 393,3032 Z"
        id="Shape" fill="#2A93CD" fill-rule="nonzero"></path>
      <g id="Group-98-Copy" transform="translate(130.000000, 192.000000)" fill="#EAEFF5">
        <path
          d="M155.897436,44.8930308 C140.901484,49.0483776 103.020866,70.3678514 85.4099945,82.4614317 L70.1537974,51.3692279 C90.3336403,35.6629934 136.996416,4.66086814 155.897445,-7.21644966e-16 L155.897436,44.8930308 Z M78.7408703,87.5006468 C66.7995737,98.0185726 61.0734976,113.405505 57.3032117,122.629649 L23.7579145,122.629649 C31.0307025,106.517241 47.7329955,72.1253964 63.6763999,56.799183 L78.7408703,87.5006468 Z M53.4246353,130.844449 C47.6575361,142.13506 33.1593656,171.550457 27.3251519,178.389747 C20.8623624,185.965899 2.3119852,185.29048 0.17637368,181.403156 C-1.81198643,177.783865 13.5296808,145.578373 20.1234788,130.844449 L53.4246353,130.844449 Z"
          id="Combined-Shape"></path>
        <path
          d="M320,44.8930308 C305.004048,49.0483776 267.12343,70.3678514 249.512559,82.4614317 L234.256361,51.3692279 C254.436204,35.6629934 301.09898,4.66086814 320.000009,-3.16968674e-14 L320,44.8930308 Z M242.843434,87.5006468 C230.902138,98.0185726 225.176062,113.405505 221.405776,122.629649 L187.860479,122.629649 C195.133267,106.517241 211.83556,72.1253964 227.778964,56.799183 L242.843434,87.5006468 Z M217.527199,130.844449 C211.7601,142.13506 197.26193,171.550457 191.427716,178.389747 C184.964927,185.965899 166.414549,185.29048 164.278938,181.403156 C162.290578,177.783865 177.632245,145.578373 184.226043,130.844449 L217.527199,130.844449 Z"
          id="Combined-Shape-Copy-25"
          transform="translate(242.051286, 92.120325) scale(-1, 1) translate(-242.051286, -92.120325) "></path>
      </g>
      <path
        d="M61.908,1419.634 L63.756,1410.646 L65.996,1410.646 L63.378,1422 L60.564,1422 L58.912,1412.564 L57.26,1422 L54.446,1422 L51.828,1410.646 L54.054,1410.646 L55.902,1419.634 L57.498,1410.646 L60.312,1410.646 L61.908,1419.634 Z M68.316,1422 L68.316,1410.646 L70.332,1410.646 L70.332,1422 L68.316,1422 Z M75.62,1412.536 L75.62,1422 L73.632,1422 L73.632,1410.646 L76.74,1410.646 L80.884,1420.11 L80.884,1410.646 L82.858,1410.646 L82.858,1422 L79.764,1422 L75.62,1412.536 Z M91.268,1422.168 C90.3719955,1422.168 89.5600036,1422.021 88.832,1421.727 C88.1039964,1421.433 87.4856692,1421.02234 86.977,1420.495 C86.4683308,1419.96766 86.0763347,1419.347 85.801,1418.633 C85.5256653,1417.919 85.388,1417.142 85.388,1416.302 C85.388,1415.462 85.5256653,1414.685 85.801,1413.971 C86.0763347,1413.257 86.4683308,1412.63634 86.977,1412.109 C87.4856692,1411.58166 88.1039964,1411.171 88.832,1410.877 C89.5600036,1410.583 90.3719955,1410.436 91.268,1410.436 C92.0893374,1410.436 92.8639964,1410.52467 93.592,1410.702 C94.3200036,1410.87933 94.9266642,1411.11733 95.412,1411.416 L94.642,1413.194 C94.2313313,1412.942 93.7460028,1412.739 93.186,1412.585 C92.6259972,1412.431 92.01467,1412.354 91.352,1412.354 C90.8386641,1412.354 90.3510023,1412.43333 89.889,1412.592 C89.4269977,1412.75067 89.0210017,1412.99333 88.671,1413.32 C88.3209983,1413.64667 88.0433344,1414.05733 87.838,1414.552 C87.6326656,1415.04667 87.53,1415.63 87.53,1416.302 C87.53,1416.974 87.6326656,1417.55733 87.838,1418.052 C88.0433344,1418.54667 88.3209983,1418.95967 88.671,1419.291 C89.0210017,1419.62233 89.4269977,1419.86733 89.889,1420.026 C90.3510023,1420.18467 90.8386641,1420.264 91.352,1420.264 C91.7533353,1420.264 92.1546647,1420.222 92.556,1420.138 C92.9573353,1420.054 93.3306649,1419.93267 93.676,1419.774 L93.676,1417.73 L91.142,1417.73 L91.142,1415.826 L95.692,1415.826 L95.692,1421.132 C95.421332,1421.3 95.1063351,1421.447 94.747,1421.573 C94.3876649,1421.699 94.012002,1421.80633 93.62,1421.895 C93.227998,1421.98367 92.829002,1422.05133 92.423,1422.098 C92.016998,1422.14467 91.6320018,1422.168 91.268,1422.168 Z"
        id="WING" fill="#C8D2DE"
        transform="translate(73.760000, 1416.302000) rotate(-90.000000) translate(-73.760000, -1416.302000) "></path>
      <path
        d="M492.908,1419.634 L494.756,1410.646 L496.996,1410.646 L494.378,1422 L491.564,1422 L489.912,1412.564 L488.26,1422 L485.446,1422 L482.828,1410.646 L485.054,1410.646 L486.902,1419.634 L488.498,1410.646 L491.312,1410.646 L492.908,1419.634 Z M499.316,1422 L499.316,1410.646 L501.332,1410.646 L501.332,1422 L499.316,1422 Z M506.62,1412.536 L506.62,1422 L504.632,1422 L504.632,1410.646 L507.74,1410.646 L511.884,1420.11 L511.884,1410.646 L513.858,1410.646 L513.858,1422 L510.764,1422 L506.62,1412.536 Z M522.268,1422.168 C521.371996,1422.168 520.560004,1422.021 519.832,1421.727 C519.103996,1421.433 518.485669,1421.02234 517.977,1420.495 C517.468331,1419.96766 517.076335,1419.347 516.801,1418.633 C516.525665,1417.919 516.388,1417.142 516.388,1416.302 C516.388,1415.462 516.525665,1414.685 516.801,1413.971 C517.076335,1413.257 517.468331,1412.63634 517.977,1412.109 C518.485669,1411.58166 519.103996,1411.171 519.832,1410.877 C520.560004,1410.583 521.371996,1410.436 522.268,1410.436 C523.089337,1410.436 523.863996,1410.52467 524.592,1410.702 C525.320004,1410.87933 525.926664,1411.11733 526.412,1411.416 L525.642,1413.194 C525.231331,1412.942 524.746003,1412.739 524.186,1412.585 C523.625997,1412.431 523.01467,1412.354 522.352,1412.354 C521.838664,1412.354 521.351002,1412.43333 520.889,1412.592 C520.426998,1412.75067 520.021002,1412.99333 519.671,1413.32 C519.320998,1413.64667 519.043334,1414.05733 518.838,1414.552 C518.632666,1415.04667 518.53,1415.63 518.53,1416.302 C518.53,1416.974 518.632666,1417.55733 518.838,1418.052 C519.043334,1418.54667 519.320998,1418.95967 519.671,1419.291 C520.021002,1419.62233 520.426998,1419.86733 520.889,1420.026 C521.351002,1420.18467 521.838664,1420.264 522.352,1420.264 C522.753335,1420.264 523.154665,1420.222 523.556,1420.138 C523.957335,1420.054 524.330665,1419.93267 524.676,1419.774 L524.676,1417.73 L522.142,1417.73 L522.142,1415.826 L526.692,1415.826 L526.692,1421.132 C526.421332,1421.3 526.106335,1421.447 525.747,1421.573 C525.387665,1421.699 525.012002,1421.80633 524.62,1421.895 C524.227998,1421.98367 523.829002,1422.05133 523.423,1422.098 C523.016998,1422.14467 522.632002,1422.168 522.268,1422.168 Z"
        id="WING" fill="#C8D2DE"
        transform="translate(504.760000, 1416.302000) rotate(-270.000000) translate(-504.760000, -1416.302000) "></path>
      <path
        d="M61.908,2112.634 L63.756,2103.646 L65.996,2103.646 L63.378,2115 L60.564,2115 L58.912,2105.564 L57.26,2115 L54.446,2115 L51.828,2103.646 L54.054,2103.646 L55.902,2112.634 L57.498,2103.646 L60.312,2103.646 L61.908,2112.634 Z M68.316,2115 L68.316,2103.646 L70.332,2103.646 L70.332,2115 L68.316,2115 Z M75.62,2105.536 L75.62,2115 L73.632,2115 L73.632,2103.646 L76.74,2103.646 L80.884,2113.11 L80.884,2103.646 L82.858,2103.646 L82.858,2115 L79.764,2115 L75.62,2105.536 Z M91.268,2115.168 C90.3719955,2115.168 89.5600036,2115.021 88.832,2114.727 C88.1039964,2114.433 87.4856692,2114.02234 86.977,2113.495 C86.4683308,2112.96766 86.0763347,2112.347 85.801,2111.633 C85.5256653,2110.919 85.388,2110.142 85.388,2109.302 C85.388,2108.462 85.5256653,2107.685 85.801,2106.971 C86.0763347,2106.257 86.4683308,2105.63634 86.977,2105.109 C87.4856692,2104.58166 88.1039964,2104.171 88.832,2103.877 C89.5600036,2103.583 90.3719955,2103.436 91.268,2103.436 C92.0893374,2103.436 92.8639964,2103.52467 93.592,2103.702 C94.3200036,2103.87933 94.9266642,2104.11733 95.412,2104.416 L94.642,2106.194 C94.2313313,2105.942 93.7460028,2105.739 93.186,2105.585 C92.6259972,2105.431 92.01467,2105.354 91.352,2105.354 C90.8386641,2105.354 90.3510023,2105.43333 89.889,2105.592 C89.4269977,2105.75067 89.0210017,2105.99333 88.671,2106.32 C88.3209983,2106.64667 88.0433344,2107.05733 87.838,2107.552 C87.6326656,2108.04667 87.53,2108.63 87.53,2109.302 C87.53,2109.974 87.6326656,2110.55733 87.838,2111.052 C88.0433344,2111.54667 88.3209983,2111.95967 88.671,2112.291 C89.0210017,2112.62233 89.4269977,2112.86733 89.889,2113.026 C90.3510023,2113.18467 90.8386641,2113.264 91.352,2113.264 C91.7533353,2113.264 92.1546647,2113.222 92.556,2113.138 C92.9573353,2113.054 93.3306649,2112.93267 93.676,2112.774 L93.676,2110.73 L91.142,2110.73 L91.142,2108.826 L95.692,2108.826 L95.692,2114.132 C95.421332,2114.3 95.1063351,2114.447 94.747,2114.573 C94.3876649,2114.699 94.012002,2114.80633 93.62,2114.895 C93.227998,2114.98367 92.829002,2115.05133 92.423,2115.098 C92.016998,2115.14467 91.6320018,2115.168 91.268,2115.168 Z"
        id="WING" fill="#C8D2DE"
        transform="translate(73.760000, 2109.302000) rotate(-90.000000) translate(-73.760000, -2109.302000) "></path>
      <path
        d="M492.908,2112.634 L494.756,2103.646 L496.996,2103.646 L494.378,2115 L491.564,2115 L489.912,2105.564 L488.26,2115 L485.446,2115 L482.828,2103.646 L485.054,2103.646 L486.902,2112.634 L488.498,2103.646 L491.312,2103.646 L492.908,2112.634 Z M499.316,2115 L499.316,2103.646 L501.332,2103.646 L501.332,2115 L499.316,2115 Z M506.62,2105.536 L506.62,2115 L504.632,2115 L504.632,2103.646 L507.74,2103.646 L511.884,2113.11 L511.884,2103.646 L513.858,2103.646 L513.858,2115 L510.764,2115 L506.62,2105.536 Z M522.268,2115.168 C521.371996,2115.168 520.560004,2115.021 519.832,2114.727 C519.103996,2114.433 518.485669,2114.02234 517.977,2113.495 C517.468331,2112.96766 517.076335,2112.347 516.801,2111.633 C516.525665,2110.919 516.388,2110.142 516.388,2109.302 C516.388,2108.462 516.525665,2107.685 516.801,2106.971 C517.076335,2106.257 517.468331,2105.63634 517.977,2105.109 C518.485669,2104.58166 519.103996,2104.171 519.832,2103.877 C520.560004,2103.583 521.371996,2103.436 522.268,2103.436 C523.089337,2103.436 523.863996,2103.52467 524.592,2103.702 C525.320004,2103.87933 525.926664,2104.11733 526.412,2104.416 L525.642,2106.194 C525.231331,2105.942 524.746003,2105.739 524.186,2105.585 C523.625997,2105.431 523.01467,2105.354 522.352,2105.354 C521.838664,2105.354 521.351002,2105.43333 520.889,2105.592 C520.426998,2105.75067 520.021002,2105.99333 519.671,2106.32 C519.320998,2106.64667 519.043334,2107.05733 518.838,2107.552 C518.632666,2108.04667 518.53,2108.63 518.53,2109.302 C518.53,2109.974 518.632666,2110.55733 518.838,2111.052 C519.043334,2111.54667 519.320998,2111.95967 519.671,2112.291 C520.021002,2112.62233 520.426998,2112.86733 520.889,2113.026 C521.351002,2113.18467 521.838664,2113.264 522.352,2113.264 C522.753335,2113.264 523.154665,2113.222 523.556,2113.138 C523.957335,2113.054 524.330665,2112.93267 524.676,2112.774 L524.676,2110.73 L522.142,2110.73 L522.142,2108.826 L526.692,2108.826 L526.692,2114.132 C526.421332,2114.3 526.106335,2114.447 525.747,2114.573 C525.387665,2114.699 525.012002,2114.80633 524.62,2114.895 C524.227998,2114.98367 523.829002,2115.05133 523.423,2115.098 C523.016998,2115.14467 522.632002,2115.168 522.268,2115.168 Z"
        id="WING" fill="#C8D2DE"
        transform="translate(504.760000, 2109.302000) rotate(-270.000000) translate(-504.760000, -2109.302000) "></path>
      <path
        d="M65.4850218,1460 L86,1460 L86,1462 L65.4850218,1462 L69,1465.67711 L67.7354427,1467 L62,1461 L67.7354427,1455 L69,1456.32289 L65.4850218,1460 Z"
        id="Combined-Shape-Copy-6" fill="#C8D2DE"
        transform="translate(74.000000, 1461.000000) rotate(-90.000000) translate(-74.000000, -1461.000000) "></path>
      <path
        d="M65.4850218,2065 L86,2065 L86,2067 L65.4850218,2067 L69,2070.67711 L67.7354427,2072 L62,2066 L67.7354427,2060 L69,2061.32289 L65.4850218,2065 Z"
        id="Combined-Shape-Copy-8" fill="#C8D2DE"
        transform="translate(74.000000, 2066.000000) scale(1, -1) rotate(-90.000000) translate(-74.000000, -2066.000000) "></path>
      <path
        d="M497.485022,1460 L518,1460 L518,1462 L497.485022,1462 L501,1465.67711 L499.735443,1467 L494,1461 L499.735443,1455 L501,1456.32289 L497.485022,1460 Z"
        id="Combined-Shape-Copy-7" fill="#C8D2DE"
        transform="translate(506.000000, 1461.000000) rotate(-90.000000) translate(-506.000000, -1461.000000) "></path>
      <path
        d="M497.485022,2065 L518,2065 L518,2067 L497.485022,2067 L501,2070.67711 L499.735443,2072 L494,2066 L499.735443,2060 L501,2061.32289 L497.485022,2065 Z"
        id="Combined-Shape-Copy-9" fill="#C8D2DE"
        transform="translate(506.000000, 2066.000000) scale(1, -1) rotate(-90.000000) translate(-506.000000, -2066.000000) "></path>
    </g>
  </g>
</svg>
