<?xml version="1.0" encoding="UTF-8"?>
<svg width="67px" height="30px" viewBox="0 0 67 30" version="1.1" xmlns="http://www.w3.org/2000/svg"
     xmlns:xlink="http://www.w3.org/1999/xlink">
  <!-- Generator: Sketch 52.2 (67145) - http://www.bohemiancoding.com/sketch -->
  <title>Group 10 Copy 7</title>
  <desc>Created with Sketch.</desc>
  <defs>
    <polygon id="path-1"
             points="0.282465208 0.0681272369 60.3471283 0.0681272369 60.3471283 28.7105736 0.282465208 28.7105736"></polygon>
  </defs>
  <g id="Booking-Engine-Flow" stroke="none" stroke-width="1" fill="none" fill-rule="evenodd">
    <g id="Jazeera_Search-Landing-Page-Copy" transform="translate(-686.000000, -355.000000)">
      <g id="Group-2" transform="translate(550.000000, 310.000000)">
        <g id="Group-10-Copy-7" transform="translate(136.000000, 45.000000)">
          <g id="Group-3" transform="translate(6.151468, 0.555926)">
            <mask id="mask-2" fill="white">
              <use xlink:href="#path-1"></use>
            </mask>
            <g id="Clip-2"></g>
            <path
              d="M60.2231147,1.23181243 C59.4849386,-0.515793367 54.9322374,-0.0164774261 53.2104415,0.919739963 C46.9353294,4.10287909 40.5999328,7.3484327 34.3248206,10.5315718 L10.0265232,4.53978053 L7.99715405,7.53567618 L19.5003986,18.0837254 C13.4719603,21.2044501 2.46083313,27.0089979 0.430848797,28.0700443 C-1.29156216,28.9438471 12.4871103,28.9438471 15.5628442,27.9452153 C15.5628442,27.9452153 38.2623751,16.5857776 48.3501669,11.4677892 C50.9337834,10.1570849 53.5180149,8.84638053 56.1016314,7.53567618 C57.7625276,6.66187328 61.0228055,3.1042472 60.2231147,1.23181243"
              id="Fill-1" fill="#004A97" mask="url(#mask-2)"></path>
          </g>
          <polygon id="Fill-4" fill="#00A0DF"
                   points="1.59944311 20.6370399 6.15146769e-05 22.6343037 5.65941179 27.6898776 12.4260262 24.1322515"></polygon>
          <path
            d="M40.9294669,20.132606 C41.3852907,19.6694904 42.1253122,19.6694904 42.5823663,20.132606 C43.0388052,20.5957215 43.0388052,21.3465679 42.5823663,21.8096834 C42.1253122,22.2727989 41.3852907,22.2727989 40.9294669,21.8096834 C40.473028,21.3465679 40.473028,20.5957215 40.9294669,20.132606"
            id="Fill-6" fill="#004A97"></path>
          <path
            d="M37.7924645,21.6582658 C38.2489034,21.1951503 38.9889249,21.1951503 39.4453638,21.6582658 C39.9018027,22.1213814 39.9018027,22.8722277 39.4453638,23.3353433 C38.9889249,23.7984588 38.2489034,23.7984588 37.7924645,23.3353433 C37.3360255,22.8722277 37.3360255,22.1213814 37.7924645,21.6582658"
            id="Fill-8" fill="#004A97"></path>
        </g>
      </g>
    </g>
  </g>
</svg>
