<?xml version="1.0" encoding="UTF-8"?>
<svg width="64px" height="60px" viewBox="0 0 64 60" version="1.1" xmlns="http://www.w3.org/2000/svg">
  <!-- Generator: Sketch 52.2 (67145) - http://www.bohemiancoding.com/sketch -->
  <title>Icon</title>
  <desc>Created with Sketch.</desc>
  <g id="Interface-Inventory" stroke="none" stroke-width="1" fill="none" fill-rule="evenodd">
    <g id="7.1-Icons" transform="translate(-331.000000, -1221.000000)">
      <g id="Icon" transform="translate(331.000000, 1221.000000)">
        <path
          d="M4.63768116,55.1422428 L59.3623188,55.1422428 L59.3623188,25.0583953 L31.5609648,5.68169395 L4.63768116,25.032804 L4.63768116,55.1422428 Z M0,22.6548155 L31.5197433,0 L64,22.6377547 L64,59.779924 L0,59.779924 L0,22.6548155 Z"
          id="Combined-Shape" fill="#071C2C" fill-rule="nonzero"></path>
        <path
          d="M46.5556338,36.6099689 L43.9388664,32.8141033 L59.0111887,22.2608696 L63.0608003,25.0534963 L46.5556338,36.6099689 Z M44.5435487,41.6356601 L63.8186497,55.1315662 L55.7805573,55.1315662 L40.5335557,44.4560267 L44.5435487,41.6356601 Z M23.4916543,44.4737577 L8.26997645,55.1315662 L0.231884058,55.1315662 L19.4816613,41.6533912 L23.4916543,44.4737577 Z M17.4608173,36.5861051 L2.70097484,26.2516614 L6.52729845,23.3026944 L20.0775847,32.7902395 L17.4608173,36.5861051 Z"
          id="Combined-Shape" fill="#071C2C" fill-rule="nonzero"></path>
        <path
          d="M34.758437,39.1714629 L41.384903,34.5317901 L44.0096277,38.3220842 L31.9758283,46.7478261 L19.942029,38.3220842 L22.5667537,34.5317901 L29.1932196,39.1714629 L29.1932196,22.6318841 L34.758437,22.6318841 L34.758437,39.1714629 Z"
          id="Combined-Shape" fill="#004A97"></path>
      </g>
    </g>
  </g>
</svg>
