<?xml version="1.0" encoding="UTF-8"?>
<svg width="24px" height="24px" viewBox="0 0 24 24" version="1.1" xmlns="http://www.w3.org/2000/svg">
  <!-- Generator: Sketch 52.2 (67145) - http://www.bohemiancoding.com/sketch -->
  <title>Group 30</title>
  <desc>Created with Sketch.</desc>
  <g id="Booking-Engine-Flow" stroke="none" stroke-width="1" fill="none" fill-rule="evenodd">
    <g id="5_Payment-Details_2" transform="translate(-971.000000, -1236.000000)">
      <g id="Group" transform="translate(135.000000, 624.000000)">
        <g id="Group-38" transform="translate(0.000000, 360.000000)">
          <g id="Group-30" transform="translate(836.000000, 252.000000)">
            <path
              d="M12,23 C18.0751322,23 23,18.0751322 23,12 C23,5.92486775 18.0751322,1 12,1 C5.92486775,1 1,5.92486775 1,12 C1,18.0751322 5.92486775,23 12,23 Z M12,24 C5.372583,24 0,18.627417 0,12 C0,5.372583 5.372583,0 12,0 C18.627417,0 24,5.372583 24,12 C24,18.627417 18.627417,24 12,24 Z"
              id="Oval-16" fill="#CAD8E6" fill-rule="nonzero"></path>
            <path
              d="M11.748,17.144 C11.6039993,17.144 11.4640007,17.1200002 11.328,17.072 C11.1919993,17.0239998 11.0720005,16.9580004 10.968,16.874 C10.8639995,16.7899996 10.7800003,16.6860006 10.716,16.562 C10.6519997,16.4379994 10.62,16.3000008 10.62,16.148 C10.62,15.9959992 10.6519997,15.8580006 10.716,15.734 C10.7800003,15.6099994 10.8639995,15.5040004 10.968,15.416 C11.0720005,15.3279996 11.1919993,15.2600002 11.328,15.212 C11.4640007,15.1639998 11.6039993,15.14 11.748,15.14 C11.8920007,15.14 12.0319993,15.1639998 12.168,15.212 C12.3040007,15.2600002 12.4259995,15.3279996 12.534,15.416 C12.6420005,15.5040004 12.7279997,15.6099994 12.792,15.734 C12.8560003,15.8580006 12.888,15.9959992 12.888,16.148 C12.888,16.3000008 12.8560003,16.4379994 12.792,16.562 C12.7279997,16.6860006 12.6420005,16.7899996 12.534,16.874 C12.4259995,16.9580004 12.3040007,17.0239998 12.168,17.072 C12.0319993,17.1200002 11.8920007,17.144 11.748,17.144 Z M11.712,8.732 C11.3359981,8.732 10.9640018,8.77799954 10.596,8.87 C10.2279982,8.96200046 9.87600168,9.07999928 9.54,9.224 L9.756,7.484 C10.0280014,7.37199944 10.3319983,7.27800038 10.668,7.202 C11.0040017,7.12599962 11.4079976,7.088 11.88,7.088 C12.3600024,7.088 12.8099979,7.1579993 13.23,7.298 C13.6500021,7.4380007 14.0139985,7.6379987 14.322,7.898 C14.6300015,8.1580013 14.8719991,8.47199816 15.048,8.84 C15.2240009,9.20800184 15.312,9.61999772 15.312,10.076 C15.312,10.5000021 15.2400007,10.8779983 15.096,11.21 C14.9519993,11.5420017 14.7600012,11.8319988 14.52,12.08 C14.2799988,12.3280012 13.9980016,12.5339992 13.674,12.698 C13.3499984,12.8620008 13.0080018,12.9839996 12.648,13.064 L12.648,14.156 L10.968,14.156 L10.968,11.792 L11.112,11.792 C11.4320016,11.792 11.7399985,11.7660003 12.036,11.714 C12.3320015,11.6619997 12.5919989,11.5740006 12.816,11.45 C13.0400011,11.3259994 13.2179993,11.164001 13.35,10.964 C13.4820007,10.763999 13.548,10.5200014 13.548,10.232 C13.548,9.99999884 13.4940005,9.79000094 13.386,9.602 C13.2779995,9.41399906 13.1360009,9.25600064 12.96,9.128 C12.7839991,8.99999936 12.5880011,8.90200034 12.372,8.834 C12.1559989,8.76599966 11.9360011,8.732 11.712,8.732 Z"
              id="?" fill="#55565A"></path>
          </g>
        </g>
      </g>
    </g>
  </g>
</svg>
