<?xml version="1.0" encoding="UTF-8"?>
<svg xmlns:xlink="http://www.w3.org/1999/xlink" width="174px" height="54px" viewBox="0 0 174 54" version="1.1"
     xmlns="http://www.w3.org/2000/svg">
  <!-- Generator: Sketch 52.2 (67145) - http://www.bohemiancoding.com/sketch -->
  <title>Jazeera Logo</title>
  <desc>Created with Sketch.</desc>
  <defs>
    <polygon id="path-1" points="8.5e-05 0.156030864 16.68856 0.156030864 16.68856 35 8.5e-05 35"></polygon>
    <polygon id="path-3" points="0 54 174 54 174 0 0 0"></polygon>
  </defs>
  <g id="Home-Pages" stroke="none" stroke-width="1" fill="none" fill-rule="evenodd">
    <g id="Menu" transform="translate(-135.000000, -34.000000)">
      <g id="Mega-Menu">
        <g id="Header">
          <g id="Jazeera-Logo" transform="translate(135.000000, 34.000000)">
            <g id="Group-3" transform="translate(0.000000, 19.000000)">
              <mask id="mask-2" fill="white">
                <use xlink:href="#path-1"></use>
              </mask>
              <g id="Clip-2"></g>
              <path
                d="M16.68856,0.156030864 L8.74191,0.156030864 L8.74191,21.7925123 C8.74191,24.070537 8.317335,25.6943642 7.46861,26.6609691 C6.619885,27.6275741 5.22631,28.1110926 3.292135,28.1110926 C3.079635,28.1110926 2.875635,28.0942407 2.66866,28.0843025 L8.5e-05,34.6738086 C1.178185,34.8894259 2.47911,35.0000432 3.90201,35.0000432 C6.41546,35.0000432 8.494985,34.6617099 10.14356,33.9880679 C11.79001,33.3157222 13.097735,32.4009691 14.06461,31.2433765 C15.03361,30.0879444 15.711485,28.7315864 16.10291,27.1777593 C16.492635,25.6239321 16.68856,23.9664012 16.68856,22.2073272 L16.68856,0.156030864 Z"
                id="Fill-1" fill="#00A0DF" mask="url(#mask-2)"></path>
            </g>
            <path
              d="M149.502809,47.9793189 C148.054278,47.9793189 146.915167,47.7451837 146.086362,47.2734188 C145.257114,46.8016539 144.840722,45.9555348 144.840722,44.7333143 C144.840722,44.1064785 144.981287,43.5822953 145.26507,43.1633855 C145.547527,42.7457862 145.936071,42.412493 146.430261,42.168311 C146.722884,42.0245974 148.001234,41.79352 149.699512,41.79352 C150.815637,41.79352 152.109016,41.892678 153.424054,42.1822892 L153.424054,47.7700824 C152.999705,47.8412839 152.433907,47.8937023 151.727102,47.9277742 C151.021181,47.9631565 150.279897,47.9793189 149.502809,47.9793189 M148.86717,25 C147.947306,25 147.039377,25.0436819 146.139847,25.1292985 C145.238107,25.2179729 144.380569,25.3223727 143.569445,25.4442453 C143.14156,25.5088945 142.733567,25.5774752 142.339276,25.650424 L142.339276,25.6565395 C142.09837,25.6993478 141.85879,25.7452138 141.617442,25.7937008 C141.019376,25.9177575 140.495128,26.066276 140.07078,26.2383829 L140.07078,32.6792842 C140.727636,32.5176611 142.226559,31.8296706 146.064702,31.8296706 C146.353347,31.8296706 146.654812,31.8331651 146.969537,31.8423383 C147.464168,31.8554429 148.056046,31.8855835 148.743402,31.9716369 C149.432968,32.0603112 149.954563,32.1559746 150.306861,32.2612481 L150.468644,32.30493 C151.206833,32.5058669 151.785008,32.8120773 152.204052,33.2270557 C153.016944,34.029056 153.424054,34.5619756 153.424054,35.8890328 L153.424054,36.5403305 C151.718703,36.4306888 149.653541,36.3048848 148.761967,36.3048848 C147.243153,36.3048848 145.776499,36.4538402 144.36333,36.7500038 C142.950161,37.0461673 141.696123,37.5275422 140.602984,38.190634 C139.508518,38.8528521 138.633742,39.74309 137.980864,40.8596002 C137.32666,41.9778578 137,43.3389869 137,44.9434244 C137,46.6190634 137.282457,48.0317372 137.846929,49.1836298 C138.412727,50.3363961 139.225619,51.2694422 140.284722,51.9853891 C141.343825,52.7004624 142.606262,53.2154724 144.072474,53.5299824 C145.536919,53.8449291 147.171544,54 148.975025,54 C151.832747,54 154.270983,53.8344455 156.28487,53.5033364 C158.297431,53.1722273 159.869288,52.8843634 161,52.6414918 L161,36.2542138 C161,34.5449397 160.805065,32.9911732 160.416521,31.596409 C160.028419,30.1998976 159.364932,29.0134962 158.428271,28.0363313 C157.492495,27.0582928 156.249507,26.308274 154.695331,25.7836539 C153.140271,25.2616548 151.198434,25 148.86717,25"
              id="Fill-4" fill="#40B4E5"></path>
            <path
              d="M65.7348716,26 L43.6330437,26 L43.6330437,32.3650841 L55.4760343,32.3650841 C54.5253659,33.4593373 53.4851449,34.6842155 52.3589006,36.0354361 C51.2278037,37.3866567 50.0927364,38.7824183 48.9466406,40.2175817 C47.8018682,41.6565995 46.7082686,43.0857669 45.6693711,44.5042273 C44.628709,45.9248291 43.7398009,47.2512095 43,48.4829402 L43,53 L66,53 L66,46.6344876 L52.5410937,46.6344876 C53.5654334,45.1971829 54.7044709,43.708913 55.9595297,42.1688213 C57.2132651,40.6287296 58.4572952,39.1584474 59.6960316,37.7541202 C60.9299154,36.3519344 62.0874811,35.0692385 63.1651994,33.9051758 C64.2424766,32.7415415 65.0982987,31.8181717 65.7348716,31.1333534 L65.7348716,26 Z"
              id="Fill-6" fill="#004A97"></path>
            <path
              d="M74.0528992,36.7251698 C74.1582921,36.0621979 74.3229686,35.4079607 74.5530765,34.7628951 C74.7801105,34.1165193 75.105072,33.550067 75.5262047,33.0600443 C75.946459,32.5735155 76.4738629,32.1800123 77.1053423,31.8834656 C77.7385782,31.5877924 78.4908203,31.4388639 79.369534,31.4388639 C80.281183,31.4388639 81.0439644,31.5952169 81.6587566,31.90967 C82.2709139,32.2232496 82.7807523,32.6254876 83.1838803,33.1128899 C83.5883257,33.6033493 83.8864999,34.1610669 84.0792812,34.7877893 C84.2720624,35.4171323 84.3853598,36.0621979 84.42093,36.7251698 L74.0528992,36.7251698 Z M79.2623845,25 C77.5796105,25 75.939872,25.3135796 74.3418515,25.9424858 C72.7447092,26.5692083 71.3342003,27.495098 70.1050551,28.7162242 C68.8772274,29.9382238 67.8865337,31.4641948 67.1316567,33.2967576 C66.3772189,35.1297571 66,37.2658544 66,39.7085435 C66,41.7341456 66.2885132,43.6182437 66.8690526,45.3630216 C67.4478356,47.1073628 68.341919,48.6171744 69.5521813,49.8907095 C70.7646393,51.165118 72.2884456,52.1670005 74.1315047,52.9007244 C75.9736855,53.6331381 78.1412671,54 80.6324928,54 C81.6130863,54 82.5971929,53.9475912 83.579543,53.8419 C84.5610147,53.737519 85.4814465,53.6069336 86.3417164,53.4505806 C87.2015471,53.293354 87.9840897,53.1090496 88.6853919,52.9007244 C89.3858159,52.6915257 90.8116946,52.2294544 91.8441063,51.6105932 L91.8441063,45.0048945 C89.1034506,46.0727248 87.7504687,46.4701586 85.9219011,46.9064623 C84.5482798,47.2331441 83.1224011,47.2990919 81.6846657,47.2990919 C79.439796,47.2990919 77.6494333,46.8291592 76.3166517,45.8857999 C74.9807962,44.9437508 74.2276758,43.6689056 74.0528992,42.0656315 L91.8441063,42.0656315 C91.8779198,41.6463607 91.91349,41.1659463 91.9473035,40.6252617 C91.9828736,40.0837036 92,39.5875665 92,39.1346666 C92,34.4925528 90.8591214,30.977666 88.5782424,28.5856388 C86.2982418,26.196232 83.1922239,25 79.2623845,25 Z"
              id="Fill-8" fill="#001588"></path>
            <path
              d="M102.053202,36.7251698 C102.158593,36.0621979 102.323267,35.4079607 102.553371,34.7628951 C102.78084,34.1165193 103.105357,33.550067 103.526483,33.0600443 C103.948048,32.5735155 104.473686,32.1800123 105.105594,31.8834656 C105.738819,31.5877924 106.491049,31.4388639 107.369747,31.4388639 C108.281381,31.4388639 109.044149,31.5952169 109.658931,31.90967 C110.271078,32.2232496 110.780908,32.6254876 111.185786,33.1128899 C111.588468,33.6033493 111.886198,34.1610669 112.079415,34.7877893 C112.272193,35.4171323 112.385488,36.0621979 112.421058,36.7251698 L102.053202,36.7251698 Z M107.264356,25 C105.579854,25 103.938387,25.3135796 102.34215,25.9424858 C100.745913,26.5692083 99.3345494,27.495098 98.1071815,28.7162242 C96.878057,29.9382238 95.886941,31.4641948 95.1320767,33.2967576 C94.3776517,35.1297571 94,37.2658544 94,39.7085435 C94,41.7341456 94.2889474,43.6182437 94.8694771,45.3630216 C95.4482502,47.1073628 96.3423186,48.6171744 97.5525605,49.8907095 C98.7628023,51.165118 100.288779,52.1670005 102.131367,52.9007244 C103.973956,53.6331381 106.141501,54 108.632685,54 C109.613262,54 110.597352,53.9475912 111.579685,53.8419 C112.562897,53.737519 113.483313,53.6069336 114.341812,53.4505806 C115.201628,53.293354 115.984158,53.1090496 116.685448,52.9007244 C117.38586,52.6915257 118.811715,52.2294544 119.844109,51.6105932 L119.844109,45.0048945 C117.1035,46.0727248 115.748784,46.4701586 113.922004,46.9064623 C112.548406,47.2331441 111.122551,47.2990919 109.68484,47.2990919 C107.437812,47.2990919 105.649676,46.8291592 104.31516,45.8857999 C102.98284,44.9437508 102.227976,43.6689056 102.053202,42.0656315 L119.844109,42.0656315 C119.877922,41.6463607 119.913491,41.1659463 119.947304,40.6252617 C119.981117,40.0837036 120,39.5875665 120,39.1346666 C120,34.4925528 118.859141,30.977666 116.578739,28.5856388 C114.297899,26.196232 111.192373,25 107.264356,25 Z"
              id="Fill-10" fill="#0C84C6"></path>
            <path
              d="M132.368005,25 C130.017564,25 127.886666,25.2170947 125.974435,25.6517193 C124.060887,26.0859087 122.404645,26.547507 121,27.0343386 L121,53 L128.841684,53 L128.841684,32.0388291 C129.192516,31.9339797 129.710201,31.8400068 130.39518,31.7525599 C131.077963,31.6664181 131.665902,31.6259575 132.157682,31.6229121 C132.231009,31.6211719 132.303898,31.6211719 132.377226,31.6211719 C135.47324,31.6211719 138.312826,32.286378 139,32.4564863 L139,26.0424028 C138.578914,25.868814 138.07001,25.7221989 137.473289,25.5995121 C136.875689,25.4763902 136.280285,25.3737162 135.684003,25.2862692 C135.087281,25.2001274 134.490999,25.1296478 133.894716,25.0774406 C133.297556,25.0252335 132.78953,25 132.368005,25"
              id="Fill-12" fill="#149BD7"></path>
            <path
              d="M30.5030205,47.9793189 C29.054074,47.9793189 27.9149845,47.7451837 27.0866362,47.2734188 C26.2569618,46.8016539 25.8410196,45.9555348 25.8410196,44.7333143 C25.8410196,44.1064785 25.9815824,43.5822953 26.2653602,43.1633855 C26.547812,42.7457862 26.9359069,42.412493 27.430529,42.168311 C27.7213791,42.0245974 29.0010314,41.79352 30.6997201,41.79352 C31.8153823,41.79352 33.1087373,41.892678 34.4224252,42.1822892 L34.4224252,47.7700824 C33.9998527,47.8412839 33.4336231,47.8937023 32.7290408,47.9277742 C32.0209224,47.9631565 31.2800943,47.9793189 30.5030205,47.9793189 M29.8669515,25 C28.9475468,25 28.0396346,25.0436819 27.1396788,25.1292985 C26.2379549,25.2179729 25.3808752,25.3223727 24.5697657,25.4442453 C24.1418889,25.5088945 23.733461,25.5774752 23.3396199,25.650424 L23.3396199,25.6565395 C23.0987181,25.6993478 22.8591425,25.7452138 22.6177987,25.7937008 C22.0175335,25.9177575 21.4955061,26.066276 21.0711655,26.2383829 L21.0711655,32.6792842 C21.7280094,32.5176611 23.2269044,31.8296706 27.0645351,31.8296706 C27.3536172,31.8296706 27.6546339,31.8331651 27.9693532,31.8423383 C28.4639752,31.8554429 29.0558421,31.8855835 29.7431855,31.9716369 C30.4331811,32.0603112 30.9543244,32.1559746 31.3070576,32.2612481 L31.4683955,32.30493 C32.2056873,32.5058669 32.7851775,32.8120773 33.2042139,33.2270557 C34.0170915,34.029056 34.4224252,34.5619756 34.4224252,35.8890328 L34.4224252,36.5403305 C32.7188743,36.4306888 30.6537498,36.3048848 29.7604243,36.3048848 C28.2429645,36.3048848 26.7767791,36.4538402 25.3636364,36.7500038 C23.9504936,37.0461673 22.6964786,37.5275422 21.6015913,38.190634 C20.5084721,38.8528521 19.6323854,39.74309 18.9808457,40.8596002 C18.3270959,41.9778578 18,43.3389869 18,44.9434244 C18,46.6190634 18.2824517,48.0317372 18.8469132,49.1836298 C19.4131428,50.3363961 20.2242522,51.2694422 21.2851039,51.9853891 C22.3441874,52.7004624 23.6066009,53.2154724 25.0727862,53.5299824 C26.5372035,53.8449291 28.171357,54 29.9743628,54 C32.8329159,54 35.2711065,53.8344455 37.2849565,53.5033364 C39.2974805,53.1722273 40.868867,52.8843634 42,52.6414918 L42,36.2542138 C42,34.5449397 41.8050685,32.9911732 41.4165316,31.596409 C41.0271107,30.1998976 40.3658465,29.0134962 39.4300869,28.0363313 C38.4925593,27.0582928 37.2491528,26.308274 35.6954472,25.7836539 C34.1404155,25.2616548 32.198615,25 29.8669515,25"
              id="Fill-14" fill="#0C84C6"></path>
            <polygon id="Fill-16" fill="#0C84C6"
                     points="163 47.4997779 168.499778 53 174 47.4997779 168.499778 42"></polygon>
            <path
              d="M141.5,17 C140.677565,17 140,17.677395 140,18.4996228 C140,19.322605 140.677565,20 141.5,20 C142.322057,20 143,19.322605 143,18.4996228 C143,17.677395 142.322057,17 141.5,17"
              id="Fill-18" fill="#004A97"></path>
            <path
              d="M121.499811,17 C120.67748,17 120,17.677687 120,18.4994343 C120,19.3226901 120.67748,20 121.499811,20 C122.32252,20 123,19.3226901 123,18.4994343 C123,17.677687 122.32252,17 121.499811,17"
              id="Fill-20" fill="#0C84C6"></path>
            <path
              d="M125.499811,17 C124.677857,17 124,17.677687 124,18.4994343 C124,19.3226901 124.677857,20 125.499811,20 C126.32252,20 127,19.3226901 127,18.4994343 C127,17.677687 126.32252,17 125.499811,17"
              id="Fill-22" fill="#0C84C6"></path>
            <path
              d="M155,0 L151.315502,0 L151.315502,8.13417735 L151.315502,10.3372829 C151.315502,12.1317968 150.650479,13.1493805 148.789572,13.1493805 L148.750479,13.1493805 L148.750479,10.5394146 C148.750479,7.20835362 146.98375,5.5796137 143.356114,5.5796137 L142.481856,5.5796137 C141.209119,5.5796137 139.765794,5.67223936 138.549474,6.13580047 L138.549474,8.96737543 C138.85422,8.89292864 139.519242,8.59730563 141.228665,8.59730563 L142.501403,8.59730563 C143.639981,8.59730563 145.388052,8.89292864 145.388052,10.3732078 L145.388052,13.1493805 C145.388052,13.1307688 138.397101,13.1493805 138.397101,13.1493805 L137.865794,13.1493805 C137.245639,13.1493805 136.644587,13.0957096 136.022656,13.0407401 L136,15.9147325 C136.692565,15.9697019 137.401567,16 138.131003,16 L138.397101,16 L138.589011,16 L146.794061,16 L148.750479,16 L149.054781,16 C152.872551,16 155,14.0565925 155,10.3182384 L155,8.13417735 L155,0 Z"
              id="Fill-24" fill="#004A97"></path>
            <mask id="mask-4" fill="white">
              <use xlink:href="#path-3"></use>
            </mask>
            <g id="Clip-27"></g>
            <polygon id="Fill-26" fill="#40B4E5" mask="url(#mask-4)" points="157 16 161 16 161 0 157 0"></polygon>
            <path
              d="M121.35082,16.1134328 L119.062277,16.1134328 C118.811229,19.3313433 116.81677,21 113.432477,21 L113,21 L113,17.9923241 L113.180164,17.9923241 C114.948468,17.9923241 115.579674,16.9901919 115.579674,15.2196162 L115.579674,13.3236674 L115.579674,12.9411514 L115.579674,12.484435 L115.579674,11.7560768 L115.579674,6.0119403 L119.068606,6.0119403 L119.068606,13.3049041 L121.188799,13.3049041 L121.609041,13.3057569 L122.100588,13.3057569 C123.868893,13.3057569 124.50052,12.3031983 124.50052,10.5351812 L124.50052,8.36460554 L124.50052,6 L128,6 L128,8.36460554 L128,10.5164179 C128,14.1995736 125.97896,16.1142857 122.353323,16.1142857 L121.35082,16.1134328 Z"
              id="Fill-28" fill="#0C84C6" mask="url(#mask-4)"></path>
            <polygon id="Fill-29" fill="#0C84C6" mask="url(#mask-4)"
                     points="99 13.5 96.5008587 16 94 13.5 96.5008587 11"></polygon>
            <path
              d="M106.709183,13.0411213 C105.713429,13.0411213 104.929705,12.8841281 104.361078,12.5688792 C103.790261,12.2536302 103.581735,11.762027 103.581735,10.9454943 C103.581735,10.5258639 103.678113,10.1756808 103.873496,9.89578686 C104.068003,9.61673471 104.334356,9.39408224 104.674305,9.2311966 C104.875383,9.13565386 105.753732,8.98076518 106.921213,8.98076518 C107.68829,8.98076518 108.445291,9.0043352 109.349486,9.19752515 L109.367885,12.8580327 C109.076563,12.9060146 108.723909,12.9834589 108.237641,13.0061871 C107.752249,13.0297571 107.547666,13.0272318 107.013648,13.0272318 L106.709183,13.0411213 Z M109.54706,6.13300223 C108.555249,6.07071005 107.35535,6 106.836664,6 C105.953496,6 105.100994,6.08417863 104.279596,6.2512732 C103.458197,6.41878867 102.729233,6.69110653 102.094019,7.06570142 C101.457489,7.43987542 100.949756,7.94284271 100.569065,8.57418242 C100.18925,9.20594301 100,9.97491477 100,10.8815186 C100,11.8285281 100.16428,12.6273833 100.492401,13.2776632 C100.821398,13.9296267 101.29321,14.4570058 101.908711,14.8610632 C102.524212,15.2655415 103.258433,15.5572204 104.110497,15.7344164 C104.962123,15.9124542 105.912317,16 106.959764,16 C108.621837,16 110.039461,15.9069826 111.209132,15.7192643 C112.378804,15.5319668 112.411222,15.5126057 113,15.2482849 L112.999562,6.4966539 L109.54706,6.13300223 Z"
              id="Fill-30" fill="#40B4E5" mask="url(#mask-4)"></path>
            <path
              d="M132.549739,6 L132.549739,11.7491393 L132.549739,12.4780778 L132.549739,12.9347313 L132.549739,13.317552 L132.549739,15.215438 C132.549739,16.9869975 131.925756,17.9903548 130.177685,17.9903548 L130,17.9903548 L130,21 L130.427112,21 C133.803128,21 135.781022,19.3018465 136,16.0271716 L136,6 L132.549739,6 Z"
              id="Fill-31" fill="#001588" mask="url(#mask-4)"></path>
          </g>
        </g>
      </g>
    </g>
  </g>
</svg>
