<?xml version="1.0" encoding="UTF-8"?>
<svg xmlns:xlink="http://www.w3.org/1999/xlink" width="500px" height="156px" viewBox="0 0 500 156" version="1.1"
     xmlns="http://www.w3.org/2000/svg">
  <!-- Generator: Sketch 52.2 (67145) - http://www.bohemiancoding.com/sketch -->
  <title>Jazeera Logo</title>
  <desc>Created with Sketch.</desc>
  <defs>
    <polygon id="path-1"
             points="0.000244252874 0.448364552 47.9556322 0.448364552 47.9556322 100.574713 0.000244252874 100.574713"></polygon>
    <polygon id="path-3" points="0 155.172414 500 155.172414 500 0 0 0"></polygon>
  </defs>
  <g id="Interface-Inventory" stroke="none" stroke-width="1" fill="none" fill-rule="evenodd">
    <g id="2.1-Branding" transform="translate(-135.000000, -244.000000)">
      <g id="Jazeera-Logo" transform="translate(135.000000, 244.000000)">
        <g id="Group-3" transform="translate(0.000000, 54.597701)">
          <mask id="mask-2" fill="white">
            <use xlink:href="#path-1"></use>
          </mask>
          <g id="Clip-2"></g>
          <path
            d="M47.9556322,0.448364552 L25.120431,0.448364552 L25.120431,62.6221619 C25.120431,69.1682099 23.9003879,73.8343799 21.461523,76.6119803 C19.022658,79.3895807 15.0181322,80.7790017 9.46015805,80.7790017 C8.84952586,80.7790017 8.26331897,80.7305768 7.66856322,80.7020186 L0.000244252874,99.6373812 C3.38558908,100.256971 7.12387931,100.574837 11.2126724,100.574837 C18.4352299,100.574837 24.4108764,99.6026146 29.1481609,97.6668618 C33.8793391,95.734834 37.6371695,93.1062331 40.415546,89.7798177 C43.2000287,86.4596105 45.1479454,82.5620299 46.2727299,78.0970094 C47.3926293,73.6319888 47.9556322,68.8689691 47.9556322,63.8141585 L47.9556322,0.448364552 Z"
            id="Fill-1" fill="#00A0DF" mask="url(#mask-2)"></path>
        </g>
        <path
          d="M429.605772,137.871606 C425.443326,137.871606 422.170021,137.198804 419.788395,135.843157 C417.4055,134.487511 416.208971,132.056134 416.208971,128.544006 C416.208971,126.742754 416.612895,125.236481 417.428363,124.032717 C418.240021,122.832719 419.356527,121.87498 420.776611,121.173308 C421.617483,120.760337 425.290902,120.096322 430.171011,120.096322 C433.378267,120.096322 437.094872,120.381259 440.873718,121.213475 L440.873718,137.270352 C439.654326,137.474954 438.028469,137.625581 435.997419,137.723489 C433.96891,137.825162 431.838784,137.871606 429.605772,137.871606 M427.779224,71.8390805 C425.135938,71.8390805 422.526947,71.9646033 419.942089,72.210628 C417.350881,72.4654392 414.886693,72.7654387 412.555876,73.1156474 C411.326322,73.3014211 410.153927,73.4984919 409.020909,73.708115 L409.020909,73.7256882 C408.328649,73.8487005 407.640201,73.9804995 406.946672,74.1198298 C405.228091,74.4763145 403.721634,74.9030921 402.502241,75.3976519 L402.502241,93.9059891 C404.389759,93.4415548 408.697008,91.4645706 419.726155,91.4645706 C420.555596,91.4645706 421.421873,91.4746125 422.326255,91.5009722 C423.747609,91.5386291 425.448407,91.6252398 427.423568,91.8725197 C429.405081,92.127331 430.903917,92.402226 431.916266,92.7047359 L432.38116,92.8302587 C434.502394,93.4076636 436.163816,94.2875785 437.367965,95.4800451 C439.703863,97.7846437 440.873718,99.3160219 440.873718,103.129405 L440.873718,105.00095 C435.973286,104.685887 430.03891,104.324382 427.476917,104.324382 C423.112509,104.324382 418.897985,104.752414 414.837155,105.603459 C410.776325,106.454504 407.172767,107.837765 404.031562,109.743201 C400.886547,111.646127 398.372821,114.204282 396.496735,117.412644 C394.616839,120.626028 393.678161,124.537319 393.678161,129.147771 C393.678161,133.962826 394.489819,138.022233 396.111864,141.33227 C397.737721,144.644816 400.073619,147.325983 403.117018,149.383302 C406.160418,151.43811 409.788109,152.918024 414.001363,153.821788 C418.209536,154.726808 422.906737,155.172414 428.089153,155.172414 C436.300997,155.172414 443.307421,154.696682 449.094453,153.74522 C454.877674,152.793757 459.394506,151.966561 462.643678,151.268655 L462.643678,104.178775 C462.643678,99.267068 462.08352,94.8022219 460.967014,90.7942789 C459.851778,86.7813149 457.945208,83.3721156 455.253654,80.5641705 C452.56464,77.7537149 448.992837,75.5984884 444.526813,74.0909595 C440.058249,72.590962 434.47826,71.8390805 427.779224,71.8390805"
          id="Fill-4" fill="#40B4E5"></path>
        <path
          d="M188.893309,74.7126437 L125.38231,74.7126437 L125.38231,93.0031154 L159.413892,93.0031154 C156.682086,96.1475209 153.692945,99.667286 150.456611,103.550104 C147.206332,107.432922 143.944645,111.443731 140.651266,115.567763 C137.36169,119.702872 134.219163,123.809675 131.233825,127.885711 C128.243417,131.9679 125.689083,135.779338 123.563218,139.318794 L123.563218,152.298851 L189.655172,152.298851 L189.655172,134.007148 L150.980154,134.007148 C153.923659,129.876962 157.196755,125.600325 160.803246,121.174774 C164.405934,116.749223 167.980733,112.524274 171.540321,108.488851 C175.085964,104.459582 178.412302,100.773674 181.509194,97.4286662 C184.604818,94.0848893 187.064077,91.4315279 188.893309,89.4636593 L188.893309,74.7126437 Z"
          id="Fill-6" fill="#004A97"></path>
        <path
          d="M212.795687,105.532097 C213.09854,103.627005 213.571749,101.747014 214.232978,99.8933768 C214.885375,98.0359751 215.819173,96.4082386 217.029324,95.0001272 C218.236951,93.6020559 219.75248,92.4712999 221.567075,91.6191541 C223.386719,90.7695183 225.548334,90.3415629 228.073374,90.3415629 C230.693055,90.3415629 232.884955,90.7908533 234.651599,91.6944541 C236.410672,92.595545 237.875725,93.7514011 239.034139,95.1519824 C240.196338,96.5613487 241.053161,98.1639852 241.60713,99.9649119 C242.161099,101.773369 242.486666,103.627005 242.588879,105.532097 L212.795687,105.532097 Z M227.765473,71.8390805 C222.929915,71.8390805 218.218023,72.7401713 213.62601,74.547373 C209.036521,76.3482997 204.983334,79.0089022 201.451308,82.5178855 C197.923067,86.0293788 195.076246,90.4143529 192.90706,95.6803379 C190.739135,100.947578 189.655172,107.085789 189.655172,114.10501 C189.655172,119.925706 190.484233,125.339781 192.15245,130.35351 C193.815619,135.365985 196.384825,139.704524 199.86259,143.364108 C203.346665,147.026201 207.725418,149.905174 213.021565,152.013576 C218.315188,154.118213 224.543871,155.172414 231.702565,155.172414 C234.520363,155.172414 237.348255,155.021814 240.1711,154.718103 C242.991422,154.418158 245.63634,154.042913 248.10838,153.593622 C250.579158,153.141822 252.827844,152.612211 254.84308,152.013576 C256.855793,151.41243 260.953145,150.084639 263.919846,148.306302 L263.919846,129.324409 C256.044398,132.392887 252.156519,133.534938 246.902015,134.788685 C242.954827,135.727426 238.857474,135.916931 234.726051,135.916931 C228.275276,135.916931 223.130556,134.566549 219.300723,131.855747 C215.462058,129.148709 213.297919,125.485361 212.795687,120.878252 L263.919846,120.878252 C264.017011,119.67345 264.119224,118.292949 264.216389,116.739258 C264.318602,115.183056 264.367816,113.757375 264.367816,112.455939 C264.367816,99.1165311 261.089429,89.0162816 254.535179,82.1426401 C247.983453,75.2765287 239.058115,71.8390805 227.765473,71.8390805 Z"
          id="Fill-8" fill="#001588"></path>
        <path
          d="M293.256328,105.532097 C293.559177,103.627005 294.032377,101.747014 294.693595,99.8933768 C295.347243,98.0359751 296.279763,96.4082386 297.489893,95.0001272 C298.701286,93.6020559 300.211741,92.4712999 302.027569,91.6191541 C303.847181,90.7695183 306.00876,90.3415629 308.533757,90.3415629 C311.153393,90.3415629 313.345257,90.7908533 315.111871,91.6944541 C316.870914,92.595545 318.335942,93.7514011 319.499384,95.1519824 C320.656517,96.5613487 321.512063,98.1639852 322.067284,99.9649119 C322.621244,101.773369 322.946806,103.627005 323.049017,105.532097 L293.256328,105.532097 Z M308.230909,71.8390805 C303.390385,71.8390805 298.673525,72.7401713 294.086637,74.547373 C289.499749,76.3482997 285.444107,79.0089022 281.917188,82.5178855 C278.385221,86.0293788 275.537187,90.4143529 273.368037,95.6803379 C271.200148,100.947578 270.114943,107.085789 270.114943,114.10501 C270.114943,119.925706 270.945251,125.339781 272.61344,130.35351 C274.276581,135.365985 276.845743,139.704524 280.32345,143.364108 C283.801156,147.026201 288.186145,149.905174 293.480941,152.013576 C298.775736,154.118213 305.004314,155.172414 312.162887,155.172414 C314.980637,155.172414 317.808482,155.021814 320.631279,154.718103 C323.4566,154.418158 326.101474,154.042913 328.568425,153.593622 C331.039161,153.141822 333.287809,152.612211 335.303011,152.013576 C337.31569,151.41243 341.412973,150.084639 344.379623,148.306302 L344.379623,129.324409 C336.504309,132.392887 332.611448,133.534938 327.36208,134.788685 C323.414959,135.727426 319.317675,135.916931 315.186322,135.916931 C308.729346,135.916931 303.591022,134.566549 299.756207,131.855747 C295.927702,129.148709 293.758552,125.485361 293.256328,120.878252 L344.379623,120.878252 C344.476787,119.67345 344.578998,118.292949 344.676162,116.739258 C344.773326,115.183056 344.827586,113.757375 344.827586,112.455939 C344.827586,99.1165311 341.549255,89.0162816 334.996377,82.1426401 C328.442238,75.2765287 319.518312,71.8390805 308.230909,71.8390805 Z"
          id="Fill-10" fill="#0C84C6"></path>
        <path
          d="M380.367831,71.8390805 C373.613688,71.8390805 367.490421,72.4629159 361.995504,73.711837 C356.496802,74.9595078 351.737484,76.2859395 347.701149,77.6848811 L347.701149,152.298851 L370.234725,152.298851 L370.234725,92.0656008 C371.242862,91.7643095 372.730464,91.4942725 374.698792,91.2429881 C376.660812,90.9954542 378.350294,90.8791883 379.763453,90.8704371 C379.974165,90.8654364 380.183615,90.8654364 380.394327,90.8654364 C389.29092,90.8654364 397.45065,92.7769482 399.425287,93.2657652 L399.425287,74.8344907 C398.21527,74.3356724 396.752903,73.9143647 395.038186,73.5618164 C393.320946,73.208018 391.610014,72.9129775 389.896559,72.6616931 C388.181842,72.4141592 386.468387,72.2116315 384.754932,72.0616109 C383.038953,71.9115904 381.57911,71.8390805 380.367831,71.8390805"
          id="Fill-12" fill="#149BD7"></path>
        <path
          d="M87.6523577,137.871606 C83.4887183,137.871606 80.2154728,137.198804 77.8351615,135.843157 C75.4510398,134.487511 74.2558034,132.056134 74.2558034,128.544006 C74.2558034,126.742754 74.6597196,125.236481 75.4751731,124.032717 C76.2868161,122.832719 77.4020313,121.87498 78.8233591,121.173308 C79.6591354,120.760337 83.3362971,120.096322 88.2175864,120.096322 C91.4235125,120.096322 95.1400497,120.381259 98.915015,121.213475 L98.915015,137.270352 C97.700726,137.474954 96.0736296,137.625581 94.0489679,137.723489 C92.0141447,137.825162 89.8853284,137.871606 87.6523577,137.871606 M85.8245733,71.8390805 C83.1826057,71.8390805 80.5736626,71.9646033 77.9875828,72.210628 C75.3964222,72.4654392 72.9335494,72.7654387 70.6027751,73.1156474 C69.373244,73.3014211 68.1996007,73.4984919 67.0678732,73.708115 L67.0678732,73.7256882 C66.3756268,73.8487005 65.687191,73.9804995 64.9936745,74.1198298 C63.2687745,74.4763145 61.7686957,74.9030921 60.549326,75.3976519 L60.549326,93.9059891 C62.4368087,93.4415548 66.7439781,91.4645706 77.7716527,91.4645706 C78.6023483,91.4645706 79.4673387,91.4746125 80.3717045,91.5009722 C81.7930323,91.5386291 83.493799,91.6252398 85.4689239,91.8725197 C87.4516698,92.127331 88.9492082,92.402226 89.9628092,92.7047359 L90.4264237,92.8302587 C92.5450786,93.4076636 94.2102803,94.2875785 95.4144079,95.4800451 C97.7502629,97.7846437 98.915015,99.3160219 98.915015,103.129405 L98.915015,105.00095 C94.0197538,104.685887 88.085488,104.324382 85.5184607,104.324382 C81.1579439,104.324382 76.9447676,104.752414 72.8840125,105.603459 C68.8232574,106.454504 65.219766,107.837765 62.0735382,109.743201 C58.932391,111.646127 56.4149007,114.204282 54.5426602,117.412644 C52.6640687,120.626028 51.7241379,124.537319 51.7241379,129.147771 C51.7241379,133.962826 52.5357809,138.022233 54.1577966,141.33227 C55.784893,144.644816 58.1156674,147.325983 61.1640916,149.383302 C64.2074351,151.43811 67.8350599,152.918024 72.0482362,153.821788 C76.2563318,154.726808 80.9521753,155.172414 86.1332263,155.172414 C94.3474594,155.172414 101.353754,154.696682 107.14068,153.74522 C112.923794,152.793757 117.439273,151.966561 120.689655,151.268655 L120.689655,104.178775 C120.689655,99.267068 120.129507,94.8022219 119.013022,90.7942789 C117.893996,86.7813149 115.993812,83.3721156 113.304848,80.5641705 C110.610803,77.7537149 107.037795,75.5984884 102.573124,74.0909595 C98.1046422,72.590962 92.5247557,71.8390805 85.8245733,71.8390805"
          id="Fill-14" fill="#0C84C6"></path>
        <polygon id="Fill-16" fill="#0C84C6"
                 points="468.390805 136.493615 484.194764 152.298851 500 136.493615 484.194764 120.689655"></polygon>
        <path
          d="M406.609195,48.8505747 C404.245878,48.8505747 402.298851,50.7971121 402.298851,53.1598357 C402.298851,55.524727 404.245878,57.4712644 406.609195,57.4712644 C408.971429,57.4712644 410.91954,55.524727 410.91954,53.1598357 C410.91954,50.7971121 408.971429,48.8505747 406.609195,48.8505747"
          id="Fill-18" fill="#004A97"></path>
        <path
          d="M349.137389,48.8505747 C346.774368,48.8505747 344.827586,50.7979511 344.827586,53.159294 C344.827586,55.5249716 346.774368,57.4712644 349.137389,57.4712644 C351.501494,57.4712644 353.448276,55.5249716 353.448276,53.159294 C353.448276,50.7979511 351.501494,48.8505747 349.137389,48.8505747"
          id="Fill-20" fill="#0C84C6"></path>
        <path
          d="M360.631642,48.8505747 C358.269705,48.8505747 356.321839,50.7979511 356.321839,53.159294 C356.321839,55.5249716 358.269705,57.4712644 360.631642,57.4712644 C362.995747,57.4712644 364.942529,55.5249716 364.942529,53.159294 C364.942529,50.7979511 362.995747,48.8505747 360.631642,48.8505747"
          id="Fill-22" fill="#0C84C6"></path>
        <path
          d="M445.402299,0 L434.81466,0 L434.81466,23.3740729 L434.81466,29.7048359 C434.81466,34.861485 432.903676,37.7855762 427.556242,37.7855762 L427.443906,37.7855762 L427.443906,30.2856741 C427.443906,20.7136598 422.367099,16.0333727 411.942857,16.0333727 L409.430622,16.0333727 C405.773329,16.0333727 401.625844,16.2995384 398.130672,17.6316105 L398.130672,25.7683202 C399.00638,25.5543926 400.917363,24.7049012 405.829497,24.7049012 L409.48679,24.7049012 C412.758567,24.7049012 417.78176,25.5543926 417.78176,29.8080684 L417.78176,37.7855762 C417.78176,37.7320943 397.692818,37.7855762 397.692818,37.7855762 L396.166074,37.7855762 C394.384021,37.7855762 392.65686,37.6313493 390.869701,37.4733912 L390.804598,45.7319898 C392.794727,45.889948 394.832088,45.9770115 396.92817,45.9770115 L397.692818,45.9770115 L398.244284,45.9770115 L421.822015,45.9770115 L427.443906,45.9770115 L428.318337,45.9770115 C439.288939,45.9770115 445.402299,40.3925073 445.402299,29.6501103 L445.402299,23.3740729 L445.402299,0 Z"
          id="Fill-24" fill="#004A97"></path>
        <mask id="mask-4" fill="white">
          <use xlink:href="#path-3"></use>
        </mask>
        <g id="Clip-27"></g>
        <polygon id="Fill-26" fill="#40B4E5" mask="url(#mask-4)"
                 points="451.149425 45.9770115 462.643678 45.9770115 462.643678 0 451.149425 0"></polygon>
        <path
          d="M348.709253,46.3029679 L342.132979,46.3029679 C341.411577,55.549837 335.680374,60.3448276 325.955395,60.3448276 L324.712644,60.3448276 L324.712644,51.7020807 L325.230355,51.7020807 C330.311691,51.7020807 332.125501,48.8223905 332.125501,43.7345293 L332.125501,38.2864005 L332.125501,37.1872166 L332.125501,35.8748131 L332.125501,33.7818298 L332.125501,17.2756905 L342.151166,17.2756905 L342.151166,38.2324829 L348.243676,38.2324829 L349.451266,38.2349337 L350.863758,38.2349337 C355.945094,38.2349337 357.760116,35.3540181 357.760116,30.2735093 L357.760116,24.0362228 L357.760116,17.2413793 L367.816092,17.2413793 L367.816092,24.0362228 L367.816092,30.2195917 C367.816092,40.8033723 362.008505,46.3054187 351.59001,46.3054187 L348.709253,46.3029679 Z"
          id="Fill-28" fill="#0C84C6" mask="url(#mask-4)"></path>
        <polygon id="Fill-29" fill="#0C84C6" mask="url(#mask-4)"
                 points="284.482759 38.7931034 277.301318 45.9770115 270.114943 38.7931034 277.301318 31.6091954"></polygon>
        <path
          d="M306.635583,37.4744864 C303.774221,37.4744864 301.522141,37.0233567 299.888156,36.1174689 C298.247877,35.211581 297.648665,33.7989282 297.648665,31.4525699 C297.648665,30.2467353 297.925612,29.2404621 298.487058,28.4361691 C299.045987,27.6342951 299.811366,26.9944892 300.788233,26.526427 C301.366044,26.2518789 303.890035,25.8067965 307.244865,25.8067965 C309.449109,25.8067965 311.624398,25.8745264 314.222661,26.42967 L314.275533,36.94837 C313.438399,37.0862487 312.425026,37.3087899 311.027704,37.3741009 C309.6329,37.4418309 309.045018,37.4345741 307.510482,37.4345741 L306.635583,37.4744864 Z M314.790402,17.6235696 C311.940369,17.4445691 308.492384,17.2413793 307.001908,17.2413793 C304.46407,17.2413793 302.014351,17.4832719 299.65401,17.9634287 C297.29367,18.444795 295.198946,19.2273176 293.373616,20.3037397 C291.54451,21.3789523 290.085505,22.8242607 288.991566,24.6384552 C287.900144,26.4538592 287.356322,28.6635482 287.356322,31.2687316 C287.356322,33.9900234 287.82839,36.2855842 288.771267,38.1542046 C289.716662,40.0276628 291.072442,41.54312 292.841124,42.7042045 C294.609805,43.8664985 296.719635,44.7046564 299.168095,45.2138403 C301.615296,45.7254432 304.345738,45.9770115 307.355644,45.9770115 C312.131714,45.9770115 316.205347,45.7097202 319.566472,45.1702997 C322.927597,44.6320886 323.020752,44.5764533 324.712644,43.8169105 L324.711385,18.6685457 L314.790402,17.6235696 Z"
          id="Fill-30" fill="#40B4E5" mask="url(#mask-4)"></path>
        <path
          d="M380.890055,17.2413793 L380.890055,33.7618946 L380.890055,35.8565454 L380.890055,37.168768 L380.890055,38.2688276 L380.890055,43.722523 C380.890055,48.8132111 379.097,51.6964218 374.073808,51.6964218 L373.563218,51.6964218 L373.563218,60.3448276 L374.790551,60.3448276 C384.491748,60.3448276 390.17535,55.4650762 390.804598,46.0550908 L390.804598,17.2413793 L380.890055,17.2413793 Z"
          id="Fill-31" fill="#001588" mask="url(#mask-4)"></path>
      </g>
    </g>
  </g>
</svg>
