<?xml version="1.0" encoding="UTF-8"?>
<svg width="59px" height="65px" viewBox="0 0 59 65" version="1.1" xmlns="http://www.w3.org/2000/svg">
  <!-- Generator: Sketch 52.2 (67145) - http://www.bohemiancoding.com/sketch -->
  <title>Buy-Icon</title>
  <desc>Created with Sketch.</desc>
  <g id="Interface-Inventory" stroke="none" stroke-width="1" fill="none" fill-rule="evenodd">
    <g id="7.1-Icons" transform="translate(-231.000000, -1218.000000)" stroke-width="0.5">
      <g id="Buy-Icon" transform="translate(231.000000, 1219.000000)">
        <path
          d="M48.4699301,25.6135758 C48.8992214,25.6135758 49.3108513,25.4418618 49.6138493,25.1388251 C49.9168472,24.8357883 50.0860723,24.4241584 50.0860723,23.9974271 L50.0860723,19.7246836 C50.0860723,18.8307523 49.3613208,18.108522 48.4699107,18.108522 C47.5785006,18.108522 46.8537491,18.8307523 46.8537491,19.7246836 L46.8537491,23.9974271 C46.8537491,24.8888372 47.5785006,25.6135887 48.4699107,25.6135887 L48.4699301,25.6135758 Z"
          id="Path" stroke="#004A97" fill="#004A97"></path>
        <path
          d="M48.4699301,14.6288485 C48.8992214,14.6288485 49.3108513,14.4596558 49.6138493,14.1566255 C49.9168472,13.8535952 50.0860723,13.4419588 50.0860723,13.0127063 L50.0860723,8.74752646 C50.0860723,7.85359515 49.3613208,7.13136485 48.4699107,7.13136485 C47.5785006,7.13136485 46.8537491,7.85359515 46.8537491,8.74752646 L46.8537491,13.0202699 C46.8562742,13.9091588 47.5810218,14.6288679 48.4699107,14.6288679 L48.4699301,14.6288485 Z"
          id="Path" stroke="#004A97" fill="#004A97"></path>
        <path
          d="M48.4699301,36.5911919 C48.8992214,36.5911919 49.3108513,36.419478 49.6138493,36.1164477 C49.9168472,35.8134174 50.0860723,35.401781 50.0860723,34.9750497 L50.0860723,30.7073487 C50.0860723,29.8159386 49.3613208,29.0911871 48.4699107,29.0911871 C47.5785006,29.0911871 46.8537491,29.8159386 46.8537491,30.7073487 L46.8537491,34.9750497 C46.8537491,35.4018198 47.0229418,35.8134497 47.3259721,36.1164477 C47.6290024,36.4194457 48.0406388,36.5911919 48.4698913,36.5911919 L48.4699301,36.5911919 Z"
          id="Path" stroke="#004A97" fill="#004A97"></path>
        <path
          d="M1.71209697,58.5632323 C1.80553051,58.5708076 1.89896404,58.5708076 1.98987636,58.5632323 C2.77520162,58.5632323 3.44694303,57.9975758 3.58076121,57.2248566 L8.03529051,31.5356444 C8.55549414,28.5457455 10.3888097,25.9472808 13.0327855,24.4549172 C14.6615531,23.5432727 16.3383531,22.7150222 18.0554925,21.9801859 C19.7701107,21.2225939 21.5478885,20.6165333 23.3686562,20.1695677 L23.3686562,30.9474263 C22.9873455,30.7959079 22.595937,30.664598 22.1994602,30.558539 C21.3383693,30.3186424 20.444438,30.8236929 20.2045349,31.6873309 C19.9671596,32.5484218 20.4722101,33.4423531 21.3333269,33.6822562 C22.1818117,33.8969018 22.9747653,34.2832679 23.6666764,34.8186117 C22.6768097,36.351444 21.391444,37.6696501 19.8863451,38.6973996 C19.1464663,39.207499 18.9620945,40.2201471 19.4722069,40.9600259 C19.9823063,41.6999046 20.9949543,41.8842764 21.7348331,41.374164 C23.6489503,40.0584792 25.2752614,38.3615095 26.5050311,36.3893398 L31.7676412,28.0887337 C32.6060412,26.7554004 34.3686271,26.3538812 35.7019604,27.1948024 C37.0352937,28.0332024 37.4342917,29.7932671 36.5958917,31.1266004 L32.6666149,37.4953115 C31.0883362,40.02816 30.2928614,42.9700913 30.383819,45.9497762 C30.5126077,50.0078287 28.563116,53.8489277 25.2121018,56.1393519 L24.7853317,56.4297568 C23.0732347,57.6014739 21.6212105,59.1140719 20.5176307,60.87168 C20.2903596,61.237844 20.2146004,61.6772396 20.3105616,62.0989285 C20.409044,62.518122 20.6666214,62.8817325 21.0327919,63.1115507 C21.7929051,63.5888226 22.7954424,63.3590238 23.2726626,62.596396 C24.138796,61.2125737 25.2802586,60.0231434 26.6287192,59.1014788 L27.0554893,58.8110739 L27.0554893,58.8085488 C29.4696469,57.1469408 31.3509236,54.8186337 32.4645883,52.1066499 L32.8585309,52.5081626 L32.8585309,52.5056375 C34.121141,53.7834395 35.9620784,54.3061708 37.7070158,53.8793749 C39.4519531,53.4525789 40.8434036,52.1420011 41.3736986,50.4247971 C43.1287208,50.8187397 44.9595733,50.2303535 46.1565026,48.8869223 C47.3534966,47.5435042 47.7272178,45.6571203 47.1337632,43.9601506 L47.0554828,43.7328795 L53.6061091,43.7328795 C55.9293737,43.7328795 57.8131717,41.8490169 57.8131717,39.5258169 L57.8131717,4.21009972 C57.8131717,3.09391386 57.3687273,2.02323911 56.5808808,1.23280679 C55.7904485,0.444895677 54.7222949,0.000515878788 53.6061091,0.000515878788 L27.5710384,0.000515878788 C25.2477737,0.000515878788 23.3639758,1.88437851 23.3639758,4.21009972 L23.3639758,16.8084027 C21.0963071,17.303349 18.8841697,18.0280876 16.7629253,18.9750937 C14.9371798,19.7730896 13.1543596,20.6720634 11.4245495,21.6645159 C7.93467475,23.6392714 5.52051717,27.0786573 4.84871111,31.0304957 L0.394181818,56.6944957 C0.320950303,57.1187381 0.419434667,57.5530654 0.666912323,57.9015745 C0.914385455,58.2525854 1.29064727,58.4899607 1.71237495,58.5631664 L1.71209697,58.5632323 Z M37.6943192,50.3738182 C36.9417697,50.9874554 35.8458182,50.9243216 35.1665131,50.2298764 L33.4544162,48.484939 C33.5832048,47.6136986 33.638762,46.7349592 33.6160323,45.8536339 C33.5983554,45.1389673 33.6438103,44.4268865 33.7523976,43.7197834 L35.5554521,43.7197834 C35.5554521,43.7197834 35.5554521,43.7854384 35.6009063,43.8157446 L38.1210841,47.9142012 L38.1210841,47.9167263 C38.6185581,48.7248071 38.4342187,49.7778334 37.694314,50.3738091 L37.6943192,50.3738182 Z M43.2397576,47.1414949 L43.2422827,47.1414949 C42.4442867,47.5354376 41.4796322,47.2526093 41.0175392,46.4950303 C40.9670342,46.4041244 40.921578,46.3132121 40.8685485,46.2222998 L39.3357162,43.7273341 L43.636193,43.7273341 L44.0957905,45.0202634 C44.3811465,45.8359079 44.0175101,46.7399887 43.2422633,47.126316 L43.2397576,47.1414949 Z M35.3431919,3.23232323 L53.6058182,3.23232323 C54.1436962,3.23232323 54.5805576,3.66919111 54.5805576,4.20958384 L54.5805576,39.5123717 C54.5805576,40.0502497 54.1436897,40.4871111 53.6058182,40.4871111 L34.7219394,40.4871111 C34.9264873,40.0426667 35.1562796,39.6108283 35.4138505,39.1941818 L39.368404,32.8406626 C40.2345374,31.4543192 40.5047596,29.7775192 40.1209535,28.1891556 C39.7371475,26.6007919 38.7295677,25.2346182 37.3255111,24.3962182 C36.7118739,24.0300541 36.0376242,23.7750044 35.3356283,23.6411475 L35.3431919,3.23232323 Z M26.6010505,4.20958384 C26.6010505,3.67170586 27.0353907,3.23484444 27.5707475,3.23232323 L32.096,3.23232323 L32.096,23.9191919 C30.8560808,24.3838384 29.7980121,25.2424404 29.0909737,26.363604 L26.6212848,30.2423919 L26.6010505,4.20958384 Z"
          id="Shape" stroke="#071C2C" fill="#071C2C" fill-rule="nonzero"></path>
      </g>
    </g>
  </g>
</svg>
