<svg xmlns="http://www.w3.org/2000/svg" width="36" height="36" viewBox="0 0 36 36">
  <g fill="none" fill-rule="evenodd">
    <path fill="#FFCE00"
          d="M36 7.692v20.616c0 2.675-.278 3.645-.801 4.623a5.452 5.452 0 0 1-2.268 2.268c-.978.523-1.948.801-4.623.801H7.692c-2.675 0-3.645-.278-4.623-.801A5.452 5.452 0 0 1 .801 32.93C.278 31.953 0 30.983 0 28.308V7.692c0-2.675.278-3.645.801-4.623A5.452 5.452 0 0 1 3.07.801C4.047.278 5.017 0 7.692 0h20.616c2.675 0 3.645.278 4.623.801a5.452 5.452 0 0 1 2.268 2.268c.523.978.801 1.948.801 4.623z"/>
    <g fill="#071C2C">
      <path
        d="M23 24.662l1.299-1.278A1 1 0 0 1 25.7 24.81l-2.95 2.903A.997.997 0 0 1 22 28a1 1 0 0 1-.863-.495l-2.838-2.792a1 1 0 1 1 1.402-1.426L21 24.565V16a1 1 0 1 1 2 0v8.662zM15 11.338l1.299 1.278A1 1 0 0 0 17.7 11.19l-2.95-2.903A.997.997 0 0 0 14 8a1 1 0 0 0-.863.495l-2.838 2.792a1 1 0 0 0 1.402 1.426L13 11.435V20a1 1 0 1 0 2 0v-8.662z"/>
    </g>
  </g>
</svg>
