<?xml version="1.0" encoding="UTF-8"?>
<svg width="54px" height="44px" viewBox="0 0 54 44" version="1.1" xmlns="http://www.w3.org/2000/svg">
  <!-- Generator: Sketch 52.2 (67145) - http://www.bohemiancoding.com/sketch -->
  <title>Group Copy 16</title>
  <desc>Created with Sketch.</desc>
  <defs>
    <filter x="-30.7%" y="-39.7%" width="161.4%" height="179.4%" filterUnits="objectBoundingBox" id="filter-1">
      <feOffset dx="0" dy="2" in="SourceAlpha" result="shadowOffsetOuter1"></feOffset>
      <feGaussianBlur stdDeviation="2.5" in="shadowOffsetOuter1" result="shadowBlurOuter1"></feGaussianBlur>
      <feColorMatrix values="0 0 0 0 0   0 0 0 0 0   0 0 0 0 0  0 0 0 0.2 0" type="matrix" in="shadowBlurOuter1"
                     result="shadowMatrixOuter1"></feColorMatrix>
      <feMerge>
        <feMergeNode in="shadowMatrixOuter1"></feMergeNode>
        <feMergeNode in="SourceGraphic"></feMergeNode>
      </feMerge>
    </filter>
  </defs>
  <g id="Home-Pages" stroke="none" stroke-width="1" fill="none" fill-rule="evenodd">
    <g id="Jazeera_Home_Desctop" transform="translate(-689.000000, -602.000000)">
      <g id="Group-30" transform="translate(135.000000, 467.000000)">
        <g id="Group-21">
          <g id="Group-Copy-16" filter="url(#filter-1)" transform="translate(559.000000, 138.000000)">
            <path
              d="M7.6916556,5.77426327e-16 L36.3083444,3.10752092e-16 C38.9829006,-1.80555915e-16 39.9527593,0.278476833 40.9305371,0.801398111 C41.9083149,1.32431939 42.6756806,2.09168511 43.1986019,3.06946289 C43.7215232,4.04724067 44,5.01709938 44,7.6916556 L44,26.3083444 C44,28.9829006 43.7215232,29.9527593 43.1986019,30.9305371 C42.6756806,31.9083149 41.9083149,32.6756806 40.9305371,33.1986019 C39.9527593,33.7215232 38.9829006,34 36.3083444,34 L7.6916556,34 C5.01709938,34 4.04724067,33.7215232 3.06946289,33.1986019 C2.09168511,32.6756806 1.32431939,31.9083149 0.801398111,30.9305371 C0.278476833,29.9527593 1.2037061e-16,28.9829006 -2.07168062e-16,26.3083444 L2.07168062e-16,7.6916556 C-1.2037061e-16,5.01709938 0.278476833,4.04724067 0.801398111,3.06946289 C1.32431939,2.09168511 2.09168511,1.32431939 3.06946289,0.801398111 C4.04724067,0.278476833 5.01709938,1.06873433e-15 7.6916556,5.77426327e-16 Z"
              id="Rectangle" fill="#FFCE00"></path>
            <path
              d="M28.6618989,12.0000002 L27.3842276,10.7013167 C26.9969012,10.3076204 27.002065,9.6744765 27.3957612,9.28715013 C27.7894574,8.89982375 28.4226014,8.90498753 28.8099277,9.29868376 L31.7128501,12.2493467 C31.9104751,12.4502218 32.0060916,12.713747 31.9996996,12.9752459 C31.9998995,12.9834731 32,12.9917249 32,13.0000002 C32,13.3681299 31.8010804,13.6897995 31.5048642,13.8633859 L28.7128501,16.7013167 C28.3255237,17.0950129 27.6923798,17.1001767 27.2986836,16.7128503 C26.9049873,16.3255239 26.8998235,15.69238 27.2871499,15.2986838 L28.5648213,14.0000002 L20,14.0000002 C19.4477153,14.0000002 19,13.552285 19,13.0000002 C19,12.4477155 19.4477153,12.0000002 20,12.0000002 L28.6618989,12.0000002 Z"
              id="Combined-Shape" fill="#071C2C"></path>
            <path
              d="M21.6618989,20.0000002 L20.3842276,18.7013167 C19.9969012,18.3076204 20.002065,17.6744765 20.3957612,17.2871501 C20.7894574,16.8998237 21.4226014,16.9049875 21.8099277,17.2986838 L24.7128501,20.2493467 C24.9104751,20.4502218 25.0060916,20.713747 24.9996996,20.9752459 C24.9998995,20.9834731 25,20.9917249 25,21.0000002 C25,21.3681299 24.8010804,21.6897995 24.5048642,21.8633859 L21.7128501,24.7013167 C21.3255237,25.0950129 20.6923798,25.1001767 20.2986836,24.7128503 C19.9049873,24.3255239 19.8998235,23.69238 20.2871499,23.2986838 L21.5648213,22.0000002 L13,22.0000002 C12.4477153,22.0000002 12,21.552285 12,21.0000002 C12,20.4477155 12.4477153,20.0000002 13,20.0000002 L21.6618989,20.0000002 Z"
              id="Combined-Shape-Copy" fill="#071C2C"
              transform="translate(18.500000, 21.000000) scale(-1, 1) translate(-18.500000, -21.000000) "></path>
          </g>
        </g>
      </g>
    </g>
  </g>
</svg>
