<?xml version="1.0" encoding="UTF-8"?>
<svg width="120px" height="21px" viewBox="0 0 120 21" version="1.1" xmlns="http://www.w3.org/2000/svg" xmlns:xlink="http://www.w3.org/1999/xlink">
    <!-- Generator: Sketch 52.2 (67145) - http://www.bohemiancoding.com/sketch -->
    <title>Group 56</title>
    <desc>Created with Sketch.</desc>
    <g id="Home-Pages" stroke="none" stroke-width="1" fill="none" fill-rule="evenodd">
        <g id="Search" transform="translate(-861.000000, -563.000000)">
            <g id="Search-and-SUggestion">
                <g id="Group-19" transform="translate(735.000000, 408.000000)">
                    <g id="Group-56" transform="translate(126.000000, 155.000000)">
                        <path d="M48.4453147,0.0799120269 C49.4557852,-0.252359912 50.6299068,0.491833515 50.7663388,1.56624782 C50.9676264,2.59041112 50.1681887,3.66003961 49.1459568,3.73592888 C48.1932852,3.86343653 47.2385973,3.10796227 47.1374494,2.13541734 C46.9963129,1.24252197 47.585726,0.31168196 48.4453147,0.0799120269 Z M36.0739759,0.752554002 C36.6701435,0.756392491 37.2673262,0.745225975 37.8645089,0.752554002 C38.250563,0.760230981 38.6731586,0.845375667 38.9475581,1.14966323 C39.2534239,1.48361186 39.2919955,1.96935531 39.2933489,2.40659421 C39.288612,4.57987741 39.2933489,6.75316062 39.2896271,8.92679278 C39.7159445,8.89922544 40.293503,9.01438014 40.5533536,8.56492786 C41.2841835,7.41442775 42.0014794,6.25520379 42.7312942,5.10191204 C43.9364867,5.10435472 45.143371,5.10330786 46.3499169,5.10330786 C45.3883343,6.58810555 44.417278,8.06557522 43.4509586,9.54653442 C43.2726496,9.82814 43.062536,10.0860167 42.8405803,10.3313311 C43.2811083,10.7797366 43.5152445,11.3771452 43.8079148,11.9263982 C44.5702109,13.5054134 45.5111543,14.9800914 46.3803681,16.4973418 C45.4225073,16.4847794 44.4632932,16.5200238 43.5054324,16.480941 C42.9437762,16.4701234 42.4132479,16.1480392 42.1449386,15.6361242 C41.4990339,14.4566609 40.9150467,13.2398596 40.2826759,12.0516725 C40.0898181,11.6884118 39.6212073,11.8049623 39.2919955,11.7599473 C39.288612,13.3400093 39.2947023,14.9186756 39.288612,16.4973418 C38.2177433,16.4973418 37.147213,16.4948991 36.0753292,16.4973418 C36.0716074,11.2490792 36.0753292,6.00081659 36.0739759,0.752554002 Z M55.3371854,6.0762135 C56.0362246,5.20584795 57.0409894,4.64093686 58.1043682,4.53169197 C59.2323557,4.41669735 60.4809017,4.59206415 61.3577812,5.43296233 C62.1537334,6.18186481 62.4727804,7.34474794 62.5373891,8.44725889 C62.5766871,11.1291491 62.5004222,13.8131955 62.5766871,16.4936483 C61.9589083,16.4832269 61.3401304,16.5274279 60.7246828,16.4692119 C60.2897399,16.4357916 59.8488024,16.2151457 59.6253363,15.796134 C59.3615731,15.2869235 59.4115282,14.6810455 59.4078648,14.1175719 C59.4068657,12.5213028 59.4151916,10.9239556 59.4045345,9.3266084 C59.3912131,8.72180855 59.2490074,7.95206329 58.6398875,7.73788581 C57.8186247,7.50106875 56.89179,7.77669649 56.2869995,8.41886959 C55.6858724,9.05457424 55.4291029,9.98782748 55.4064566,10.8761609 C55.4051244,12.7484171 55.4074557,14.6213921 55.4064566,16.4950857 C54.3610616,16.4961638 53.3153336,16.4976012 52.2699387,16.4950857 C52.2699387,12.5831124 52.2699387,8.67257648 52.2699387,4.76239993 C53.028591,4.80875714 53.8232111,4.63339034 54.5522234,4.93237636 C55.0024859,5.1116961 55.2246198,5.60437619 55.3371854,6.0762135 Z M47.1165644,5.25944705 C47.8375585,5.30006985 48.5844921,5.14687369 49.2817344,5.40024981 C49.8033378,5.60129825 50.0589829,6.22647628 50.0577328,6.80208072 C50.0655459,10.0343475 50.0577328,13.2666143 50.0611705,16.4992254 C49.0889067,16.5002582 48.117893,16.5002582 47.1459417,16.4992254 C47.1603179,12.7515998 47.1246901,9.00672836 47.1165644,5.25944705 Z M16.1499219,7.44281608 C15.4662006,7.64934065 14.8919023,8.17097486 14.5798062,8.82674358 C13.8895471,10.305062 14.1548461,12.4260196 15.6093451,13.3120881 C16.7462424,13.9983742 18.3820806,13.6637476 19.1043408,12.5008936 C19.8868179,11.2305192 19.8386443,9.41615475 18.9030439,8.24123579 C18.2451299,7.43678358 17.1154587,7.15254616 16.1499219,7.44281608 Z M15.6389375,4.62421708 C17.4894924,4.26262167 19.5361828,4.68134845 20.9597131,6.00033781 C23.2882191,8.12129541 23.443751,12.2145271 21.3671242,14.5711072 C19.1201692,17.1519546 14.6685832,17.1494706 12.4550057,14.5242666 C10.3167855,12.0477461 10.6254407,7.69121332 13.2550318,5.70261597 C13.9525169,5.15649689 14.7797266,4.79738545 15.6389375,4.62421708 Z M28.6945046,7.43410622 C27.7650328,7.69245853 27.0736929,8.54310483 26.8575846,9.49169789 C26.5279164,10.8363365 26.8589611,12.5028509 28.0675155,13.2743591 C29.041379,13.8854617 30.4034115,13.7747393 31.2416912,12.9638395 C31.9502372,12.2927622 32.2045429,11.2497712 32.1577424,10.2859183 C32.1257391,9.37955595 31.7664763,8.44231904 31.0527686,7.88089958 C30.3972173,7.34467657 29.4911457,7.21372601 28.6945046,7.43410622 Z M28.0823127,4.63659067 C29.7082863,4.31081123 31.4887704,4.55283909 32.8762678,5.52414444 C34.0493777,6.31375145 34.8738925,7.60196425 35.1777517,9.00657753 C35.5876003,10.8895685 35.2173257,13.0081994 33.9640355,14.4802398 C31.7650998,17.1208986 27.3104484,17.1819379 25.0426884,14.6062221 C23.0103075,12.3321539 23.0670875,8.40044325 25.1996078,6.2140303 C25.9759456,5.40064635 27.0045245,4.87223069 28.0823127,4.63659067 Z M67.9528536,7.59167797 C67.247478,7.87535593 66.8579473,8.65413559 66.7390449,9.40764407 C66.570907,10.4117288 66.6911491,11.5378983 67.2786271,12.3729153 C68.0369226,13.4659831 69.813089,13.5236441 70.5784182,12.4113559 C71.0999138,11.6283051 71.125034,10.6106949 71.0627359,9.68989831 C71.0001028,8.91361017 70.7070337,8.05011864 70.007352,7.68635593 C69.3743227,7.36957627 68.6076538,7.32864407 67.9528536,7.59167797 Z M66.3833427,4.87947458 C67.9923761,4.19608475 70.0170652,4.32635593 71.3497762,5.58422034 C71.5373404,5.19483051 71.8568695,4.86666102 72.273865,4.78764407 C72.9025402,4.67374576 73.5429382,4.75169492 74.1763024,4.72891525 C74.178647,8.29179661 74.1773072,11.8532542 74.1773072,15.4161356 C74.1773072,16.7174237 73.8085425,18.0582203 72.9588095,19.0235085 C71.8618935,20.2931186 70.2022849,20.8280847 68.6183717,20.8828983 C67.1439828,20.9085254 65.6561963,20.5344407 64.3633427,19.7731017 C64.6118654,19.125661 64.8064633,18.4501017 65.1192936,17.8322034 C65.2763787,17.5104407 65.6347604,17.3427966 65.967352,17.4068644 C66.4915271,17.5079492 66.9865628,17.7428644 67.5187763,17.8140508 C68.4512386,17.9624746 69.5076273,17.9418305 70.2933875,17.3175254 C70.8895739,16.8348814 71.072449,15.9931017 71.0302471,15.2335424 C70.0314674,16.1233729 68.6401426,16.2767797 67.3975294,16.0368814 C66.151232,15.7941356 65.023167,14.9655254 64.3583187,13.8212034 C63.4583452,12.2949661 63.2828387,10.3821864 63.6194495,8.64167797 C63.9245764,7.02752542 64.9136428,5.50022034 66.3833427,4.87947458 Z M3.28907312,9.44466102 C2.97791743,9.65430508 2.92600232,10.0743051 2.91762892,10.4330847 C2.91528436,11.4805932 2.91896866,12.5273898 2.91896866,13.5734746 C3.82731554,13.5681356 4.73700216,13.5809492 5.64668877,13.5709831 C6.26799536,13.5578136 6.90236445,13.2068644 7.19576853,12.610322 C7.63788426,11.707678 7.55147073,10.4359322 6.79551981,9.74862712 C6.17655778,9.1969322 5.32213563,9.26598305 4.56752446,9.261 C4.14215553,9.28022034 3.66755099,9.18554237 3.28907312,9.44466102 Z M3.2036644,3.22581356 C2.94877798,3.46464407 2.92734207,3.84762712 2.91762892,4.18362712 C2.91528436,5.04676271 2.91997347,5.90883051 2.91762892,6.7719661 C3.7084132,6.76805085 4.49919748,6.78335593 5.28998176,6.76805085 C5.76324656,6.75808475 6.24019566,6.53847458 6.52991544,6.13235593 C7.10064666,5.30481356 7.06815785,3.94088136 6.25459791,3.30233898 C5.69726414,2.86952542 4.97380202,2.99054237 4.32704029,2.97167797 C3.94990217,2.98164407 3.4990781,2.9179322 3.2036644,3.22581356 Z M0.00234455314,2.01635593 C-0.049235616,1.11477966 0.724466921,0.301474576 1.56582656,0.324254237 C2.8479622,0.324254237 4.13009783,0.323186441 5.41223346,0.324254237 C6.67527773,0.354864407 8.01167302,0.74959322 8.9042779,1.74798305 C10.2815354,3.25749153 10.1988062,5.9419322 8.77934671,7.39022034 C8.6125485,7.55608475 8.43570221,7.7080678 8.26287515,7.8650339 C8.99337092,8.25477966 9.66994197,8.81786441 10.0340176,9.61479661 C10.6938418,11.046 10.6144619,12.8708644 9.77444205,14.2016949 C8.85035318,15.6599492 7.13313547,16.2778475 5.53984414,16.3162881 C3.69501575,16.3226949 1.84918256,16.3162881 0.00368429779,16.3187797 C0.00234455314,11.5517797 0.00468910628,6.78477966 0.00234455314,2.01635593 Z" id="Combined-Shape" fill="#FFFFFF"></path>
                        <path d="M81.2388344,6.49062857 C82.7896319,4.91382857 85.2059202,4.42148571 87.2942331,4.9776 C88.1016871,5.20662857 88.9492945,5.59028571 89.4017791,6.34662857 C89.8522393,7.09954286 89.613681,8.01737143 89.6730675,8.84742857 C89.0434356,8.83405714 88.4138037,8.87451429 87.7882209,8.83028571 C87.347546,8.77988571 87.048589,8.39245714 86.916319,7.99268571 C86.819816,7.68754286 86.4867791,7.58297143 86.2168405,7.50171429 C85.0959202,7.23257143 83.821135,7.7208 83.2060123,8.72331429 C82.6091104,9.68777143 82.542638,10.9731429 83.0015337,12.0078857 C83.4553681,13.0261714 84.5496319,13.6189714 85.6223006,13.6488 C86.9119325,13.7173714 88.1114724,12.9966857 88.9719018,12.0706286 C89.4092025,12.816 89.8559509,13.5552 90.2915644,14.3019429 C88.1222699,16.8603429 83.8501534,17.1569143 81.4021472,14.8529143 C79.1083436,12.7481143 79.0489571,8.69245714 81.2388344,6.49062857 Z M106.131227,6.37268571 C106.788528,5.5704 107.700245,4.94571429 108.732761,4.80171429 C109.737607,4.66011429 110.856166,4.83874286 111.637975,5.53988571 C111.996656,5.84468571 112.22408,6.26811429 112.470061,6.66548571 C113.204969,5.61497143 114.381564,4.88297143 115.652638,4.7784 C116.784693,4.67382857 118.059479,4.93577143 118.822055,5.8584 C119.559325,6.74914286 119.714202,7.96182857 119.72635,9.08605714 C119.723988,11.4466286 119.731074,13.8085714 119.721288,16.1691429 C118.929693,16.1163429 118.086135,16.3032 117.336718,15.9709714 C116.759049,15.6905143 116.657485,14.9684571 116.668282,14.3866286 C116.668282,12.6644571 116.674356,10.9412571 116.66727,9.21908571 C116.63454,8.68148571 116.561656,7.98754286 116.014693,7.73177143 C115.307791,7.44137143 114.483129,7.72457143 113.964847,8.25702857 C113.277515,8.95954286 112.99408,9.9744 112.945828,10.9412571 C112.94819,12.6805714 112.942117,14.4198857 112.950552,16.1605714 C111.929847,16.1739429 110.909479,16.1629714 109.890123,16.1667429 C109.891135,13.9697143 109.888773,11.7740571 109.891135,9.57702857 C109.879325,9.03085714 109.833436,8.42571429 109.460245,7.99645714 C109.094816,7.56342857 108.449663,7.54251429 107.950613,7.70605714 C107.253497,7.96422857 106.789877,8.62628571 106.518589,9.29897143 C106.191626,10.0875429 106.137301,10.9546286 106.135951,11.7997714 C106.137301,13.2548571 106.135951,14.7116571 106.137301,16.1667429 C105.138528,16.1667429 104.140767,16.1667429 103.142331,16.1653714 C103.140982,12.4457143 103.140982,8.72571429 103.142331,5.00468571 C103.921779,5.04411429 104.771748,4.86308571 105.490798,5.25565714 C105.89908,5.47577143 106.019877,5.9568 106.131227,6.37268571 Z M95.7454787,7.41832179 C95.0467584,7.60178821 94.4433338,8.11457152 94.1151313,8.77426992 C93.4669831,10.1021835 93.5977136,11.9162654 94.6755525,12.9709311 C95.6580956,13.9422031 97.3933715,13.8811659 98.3277508,12.8662453 C98.9363358,12.214354 99.1792194,11.2814077 99.149977,10.3938845 C99.1461927,9.41090194 98.7460885,8.3821415 97.946224,7.81045021 C97.3166533,7.34450938 96.4875465,7.23627484 95.7454787,7.41832179 Z M95.2418221,4.60706267 C97.0885629,4.27242277 99.1224548,4.71387775 100.520927,6.04959844 C102.806992,8.19122287 102.93669,12.2551637 100.860483,14.5926749 C98.6191422,17.1352995 94.2324448,17.1416871 92.0055533,14.576351 C89.9775099,12.2629708 90.0728056,8.27390696 92.2855919,6.12234624 C93.0919929,5.32283011 94.1447177,4.80578839 95.2418221,4.60706267 Z M77.1870021,12.8223302 C78.2427346,12.4910918 79.4420791,13.3422616 79.4989185,14.4634811 C79.6085613,15.4493339 78.8269358,16.4208296 77.8492312,16.4868038 C76.8853161,16.6119155 75.9284639,15.830822 75.8450547,14.8473621 C75.7182591,13.9531211 76.321631,13.0370027 77.1870021,12.8223302 Z" id="Combined-Shape" fill="#38A1CE"></path>
                    </g>
                </g>
            </g>
        </g>
    </g>
</svg>